<svg xmlns="http://www.w3.org/2000/svg" width="1200" height="942" viewBox="0 0 1200 942">
<rect width="100%" height="100%" fill="#ffffff"/>
<text x="20.0" y="24.0" font-family="Arial, sans-serif" font-size="18" text-anchor="start" fill="#202124">Paper completeness by source</text>
<text x="230.0" y="42.0" font-family="Arial, sans-serif" font-size="11" text-anchor="middle" fill="#202124">0%</text>
<text x="600.0" y="42.0" font-family="Arial, sans-serif" font-size="11" text-anchor="middle" fill="#202124">50%</text>
<text x="970.0" y="42.0" font-family="Arial, sans-serif" font-size="11" text-anchor="middle" fill="#202124">100%</text>
<text x="12.0" y="57.0" font-family="Arial, sans-serif" font-size="12" text-anchor="start" fill="#202124">SIGGRAPH Asia</text>
<rect x="230" y="44" width="740" height="14" fill="#e8eaed"/>
<rect x="230" y="44" width="740.0" height="14" fill="#188038"/>
<text x="982.0" y="56.0" font-family="Arial, sans-serif" font-size="11" text-anchor="start" fill="#202124">100.0% complete (538/538)</text>
<text x="12.0" y="81.0" font-family="Arial, sans-serif" font-size="12" text-anchor="start" fill="#202124">BELIV</text>
<rect x="230" y="68" width="740" height="14" fill="#e8eaed"/>
<rect x="230" y="68" width="740.0" height="14" fill="#188038"/>
<text x="982.0" y="80.0" font-family="Arial, sans-serif" font-size="11" text-anchor="start" fill="#202124">100.0% complete (145/145)</text>
<text x="12.0" y="105.0" font-family="Arial, sans-serif" font-size="12" text-anchor="start" fill="#202124">BioVis</text>
<rect x="230" y="92" width="740" height="14" fill="#e8eaed"/>
<rect x="230" y="92" width="740.0" height="14" fill="#188038"/>
<text x="982.0" y="104.0" font-family="Arial, sans-serif" font-size="11" text-anchor="start" fill="#202124">100.0% complete (54/54)</text>
<text x="12.0" y="129.0" font-family="Arial, sans-serif" font-size="12" text-anchor="start" fill="#202124">VAST</text>
<rect x="230" y="116" width="740" height="14" fill="#e8eaed"/>
<rect x="230" y="116" width="739.2" height="14" fill="#188038"/>
<rect x="969.2" y="116" width="0.8" height="14" fill="#d93025"/>
<rect x="970.0" y="116" width="0.0" height="14" fill="#fbbc04"/>
<text x="982.0" y="128.0" font-family="Arial, sans-serif" font-size="11" text-anchor="start" fill="#202124">99.9% complete (969/970)</text>
<text x="12.0" y="153.0" font-family="Arial, sans-serif" font-size="12" text-anchor="start" fill="#202124">PacificVis</text>
<rect x="230" y="140" width="740" height="14" fill="#e8eaed"/>
<rect x="230" y="140" width="738.9" height="14" fill="#188038"/>
<rect x="968.9" y="140" width="1.1" height="14" fill="#d93025"/>
<text x="982.0" y="152.0" font-family="Arial, sans-serif" font-size="11" text-anchor="start" fill="#202124">99.9% complete (678/679)</text>
<text x="12.0" y="177.0" font-family="Arial, sans-serif" font-size="12" text-anchor="start" fill="#202124">EuroVis</text>
<rect x="230" y="164" width="740" height="14" fill="#e8eaed"/>
<rect x="230" y="164" width="738.3" height="14" fill="#188038"/>
<rect x="968.3" y="164" width="1.7" height="14" fill="#d93025"/>
<text x="982.0" y="176.0" font-family="Arial, sans-serif" font-size="11" text-anchor="start" fill="#202124">99.8% complete (423/424)</text>
<text x="12.0" y="201.0" font-family="Arial, sans-serif" font-size="12" text-anchor="start" fill="#202124">Intelligent Vehicles</text>
<rect x="230" y="188" width="740" height="14" fill="#e8eaed"/>
<rect x="230" y="188" width="737.5" height="14" fill="#188038"/>
<rect x="967.5" y="188" width="1.0" height="14" fill="#d93025"/>
<rect x="968.5" y="188" width="1.5" height="14" fill="#fbbc04"/>
<text x="982.0" y="200.0" font-family="Arial, sans-serif" font-size="11" text-anchor="start" fill="#202124">99.7% complete (4,974/4,991)</text>
<text x="12.0" y="225.0" font-family="Arial, sans-serif" font-size="12" text-anchor="start" fill="#202124">CSCW</text>
<rect x="230" y="212" width="740" height="14" fill="#e8eaed"/>
<rect x="230" y="212" width="737.4" height="14" fill="#188038"/>
<rect x="967.4" y="212" width="2.6" height="14" fill="#d93025"/>
<rect x="970.0" y="212" width="0.0" height="14" fill="#fbbc04"/>
<text x="982.0" y="224.0" font-family="Arial, sans-serif" font-size="11" text-anchor="start" fill="#202124">99.6% complete (3,119/3,130)</text>
<text x="12.0" y="249.0" font-family="Arial, sans-serif" font-size="12" text-anchor="start" fill="#202124">UIST</text>
<rect x="230" y="236" width="740" height="14" fill="#e8eaed"/>
<rect x="230" y="236" width="735.5" height="14" fill="#188038"/>
<rect x="965.5" y="236" width="4.5" height="14" fill="#d93025"/>
<rect x="970.0" y="236" width="0.0" height="14" fill="#fbbc04"/>
<text x="982.0" y="248.0" font-family="Arial, sans-serif" font-size="11" text-anchor="start" fill="#202124">99.4% complete (3,303/3,323)</text>
<text x="12.0" y="273.0" font-family="Arial, sans-serif" font-size="12" text-anchor="start" fill="#202124">CHI</text>
<rect x="230" y="260" width="740" height="14" fill="#e8eaed"/>
<rect x="230" y="260" width="734.8" height="14" fill="#188038"/>
<rect x="964.8" y="260" width="5.1" height="14" fill="#d93025"/>
<rect x="969.9" y="260" width="0.1" height="14" fill="#fbbc04"/>
<text x="982.0" y="272.0" font-family="Arial, sans-serif" font-size="11" text-anchor="start" fill="#202124">99.3% complete (27,898/28,094)</text>
<text x="12.0" y="297.0" font-family="Arial, sans-serif" font-size="12" text-anchor="start" fill="#202124">VCBM</text>
<rect x="230" y="284" width="740" height="14" fill="#e8eaed"/>
<rect x="230" y="284" width="733.6" height="14" fill="#188038"/>
<rect x="963.6" y="284" width="6.4" height="14" fill="#d93025"/>
<text x="982.0" y="296.0" font-family="Arial, sans-serif" font-size="11" text-anchor="start" fill="#202124">99.1% complete (230/232)</text>
<text x="12.0" y="321.0" font-family="Arial, sans-serif" font-size="12" text-anchor="start" fill="#202124">TOCHI</text>
<rect x="230" y="308" width="740" height="14" fill="#e8eaed"/>
<rect x="230" y="308" width="733.4" height="14" fill="#188038"/>
<rect x="963.4" y="308" width="0.7" height="14" fill="#d93025"/>
<rect x="964.2" y="308" width="5.8" height="14" fill="#fbbc04"/>
<text x="982.0" y="320.0" font-family="Arial, sans-serif" font-size="11" text-anchor="start" fill="#202124">99.1% complete (1,004/1,013)</text>
<text x="12.0" y="345.0" font-family="Arial, sans-serif" font-size="12" text-anchor="start" fill="#202124">TVCG</text>
<rect x="230" y="332" width="740" height="14" fill="#e8eaed"/>
<rect x="230" y="332" width="733.2" height="14" fill="#188038"/>
<rect x="963.2" y="332" width="5.0" height="14" fill="#d93025"/>
<rect x="968.1" y="332" width="1.9" height="14" fill="#fbbc04"/>
<text x="982.0" y="344.0" font-family="Arial, sans-serif" font-size="11" text-anchor="start" fill="#202124">99.1% complete (7,067/7,133)</text>
<text x="12.0" y="369.0" font-family="Arial, sans-serif" font-size="12" text-anchor="start" fill="#202124">IUI</text>
<rect x="230" y="356" width="740" height="14" fill="#e8eaed"/>
<rect x="230" y="356" width="733.0" height="14" fill="#188038"/>
<rect x="963.0" y="356" width="3.0" height="14" fill="#d93025"/>
<rect x="966.0" y="356" width="4.0" height="14" fill="#fbbc04"/>
<text x="982.0" y="368.0" font-family="Arial, sans-serif" font-size="11" text-anchor="start" fill="#202124">99.1% complete (2,732/2,758)</text>
<text x="12.0" y="393.0" font-family="Arial, sans-serif" font-size="12" text-anchor="start" fill="#202124">DIS</text>
<rect x="230" y="380" width="740" height="14" fill="#e8eaed"/>
<rect x="230" y="380" width="724.1" height="14" fill="#188038"/>
<rect x="954.1" y="380" width="15.7" height="14" fill="#d93025"/>
<rect x="969.8" y="380" width="0.2" height="14" fill="#fbbc04"/>
<text x="982.0" y="392.0" font-family="Arial, sans-serif" font-size="11" text-anchor="start" fill="#202124">97.9% complete (3,238/3,309)</text>
<text x="12.0" y="417.0" font-family="Arial, sans-serif" font-size="12" text-anchor="start" fill="#202124">AVI</text>
<rect x="230" y="404" width="740" height="14" fill="#e8eaed"/>
<rect x="230" y="404" width="723.8" height="14" fill="#188038"/>
<rect x="953.8" y="404" width="0.5" height="14" fill="#d93025"/>
<rect x="954.3" y="404" width="15.7" height="14" fill="#fbbc04"/>
<text x="982.0" y="416.0" font-family="Arial, sans-serif" font-size="11" text-anchor="start" fill="#202124">97.8% complete (1,426/1,458)</text>
<text x="12.0" y="441.0" font-family="Arial, sans-serif" font-size="12" text-anchor="start" fill="#202124">SIGMOD</text>
<rect x="230" y="428" width="740" height="14" fill="#e8eaed"/>
<rect x="230" y="428" width="722.5" height="14" fill="#188038"/>
<rect x="952.5" y="428" width="10.9" height="14" fill="#d93025"/>
<rect x="963.3" y="428" width="6.7" height="14" fill="#fbbc04"/>
<text x="982.0" y="440.0" font-family="Arial, sans-serif" font-size="11" text-anchor="start" fill="#202124">97.6% complete (4,452/4,560)</text>
<text x="12.0" y="465.0" font-family="Arial, sans-serif" font-size="12" text-anchor="start" fill="#202124">IVAPP</text>
<rect x="230" y="452" width="740" height="14" fill="#e8eaed"/>
<rect x="230" y="452" width="720.3" height="14" fill="#188038"/>
<rect x="950.3" y="452" width="19.7" height="14" fill="#fbbc04"/>
<text x="982.0" y="464.0" font-family="Arial, sans-serif" font-size="11" text-anchor="start" fill="#202124">97.3% complete (73/75)</text>
<text x="12.0" y="489.0" font-family="Arial, sans-serif" font-size="12" text-anchor="start" fill="#202124">Cognitive Science</text>
<rect x="230" y="476" width="740" height="14" fill="#e8eaed"/>
<rect x="230" y="476" width="716.7" height="14" fill="#188038"/>
<rect x="946.7" y="476" width="22.0" height="14" fill="#d93025"/>
<rect x="968.7" y="476" width="1.3" height="14" fill="#fbbc04"/>
<text x="982.0" y="488.0" font-family="Arial, sans-serif" font-size="11" text-anchor="start" fill="#202124">96.9% complete (2,280/2,354)</text>
<text x="12.0" y="513.0" font-family="Arial, sans-serif" font-size="12" text-anchor="start" fill="#202124">CGF</text>
<rect x="230" y="500" width="740" height="14" fill="#e8eaed"/>
<rect x="230" y="500" width="712.2" height="14" fill="#188038"/>
<rect x="942.2" y="500" width="25.1" height="14" fill="#d93025"/>
<rect x="967.3" y="500" width="2.7" height="14" fill="#fbbc04"/>
<text x="982.0" y="512.0" font-family="Arial, sans-serif" font-size="11" text-anchor="start" fill="#202124">96.2% complete (5,730/5,954)</text>
<text x="12.0" y="537.0" font-family="Arial, sans-serif" font-size="12" text-anchor="start" fill="#202124">SIBGRAPI</text>
<rect x="230" y="524" width="740" height="14" fill="#e8eaed"/>
<rect x="230" y="524" width="708.4" height="14" fill="#188038"/>
<rect x="938.4" y="524" width="31.6" height="14" fill="#fbbc04"/>
<text x="982.0" y="536.0" font-family="Arial, sans-serif" font-size="11" text-anchor="start" fill="#202124">95.7% complete (1,433/1,497)</text>
<text x="12.0" y="561.0" font-family="Arial, sans-serif" font-size="12" text-anchor="start" fill="#202124">SIGGRAPH</text>
<rect x="230" y="548" width="740" height="14" fill="#e8eaed"/>
<rect x="230" y="548" width="705.9" height="14" fill="#188038"/>
<rect x="935.9" y="548" width="21.8" height="14" fill="#d93025"/>
<rect x="957.7" y="548" width="12.3" height="14" fill="#fbbc04"/>
<text x="982.0" y="560.0" font-family="Arial, sans-serif" font-size="11" text-anchor="start" fill="#202124">95.4% complete (1,489/1,561)</text>
<text x="12.0" y="585.0" font-family="Arial, sans-serif" font-size="12" text-anchor="start" fill="#202124">KDD</text>
<rect x="230" y="572" width="740" height="14" fill="#e8eaed"/>
<rect x="230" y="572" width="704.3" height="14" fill="#188038"/>
<rect x="934.3" y="572" width="9.6" height="14" fill="#d93025"/>
<rect x="943.9" y="572" width="26.1" height="14" fill="#fbbc04"/>
<text x="982.0" y="584.0" font-family="Arial, sans-serif" font-size="11" text-anchor="start" fill="#202124">95.2% complete (7,110/7,470)</text>
<text x="12.0" y="609.0" font-family="Arial, sans-serif" font-size="12" text-anchor="start" fill="#202124">Information Vis.</text>
<rect x="230" y="596" width="740" height="14" fill="#e8eaed"/>
<rect x="230" y="596" width="701.3" height="14" fill="#188038"/>
<rect x="931.3" y="596" width="38.7" height="14" fill="#d93025"/>
<text x="982.0" y="608.0" font-family="Arial, sans-serif" font-size="11" text-anchor="start" fill="#202124">94.8% complete (525/554)</text>
<text x="12.0" y="633.0" font-family="Arial, sans-serif" font-size="12" text-anchor="start" fill="#202124">CGA</text>
<rect x="230" y="620" width="740" height="14" fill="#e8eaed"/>
<rect x="230" y="620" width="692.4" height="14" fill="#188038"/>
<rect x="922.4" y="620" width="35.1" height="14" fill="#d93025"/>
<rect x="957.5" y="620" width="12.5" height="14" fill="#fbbc04"/>
<text x="982.0" y="632.0" font-family="Arial, sans-serif" font-size="11" text-anchor="start" fill="#202124">93.6% complete (2,939/3,141)</text>
<text x="12.0" y="657.0" font-family="Arial, sans-serif" font-size="12" text-anchor="start" fill="#202124">VIS</text>
<rect x="230" y="644" width="740" height="14" fill="#e8eaed"/>
<rect x="230" y="644" width="691.6" height="14" fill="#188038"/>
<rect x="921.6" y="644" width="11.9" height="14" fill="#d93025"/>
<rect x="933.4" y="644" width="36.6" height="14" fill="#fbbc04"/>
<text x="982.0" y="656.0" font-family="Arial, sans-serif" font-size="11" text-anchor="start" fill="#202124">93.5% complete (1,399/1,497)</text>
<text x="12.0" y="681.0" font-family="Arial, sans-serif" font-size="12" text-anchor="start" fill="#202124">ICDM</text>
<rect x="230" y="668" width="740" height="14" fill="#e8eaed"/>
<rect x="230" y="668" width="665.7" height="14" fill="#188038"/>
<rect x="895.7" y="668" width="67.7" height="14" fill="#d93025"/>
<rect x="963.4" y="668" width="6.6" height="14" fill="#fbbc04"/>
<text x="982.0" y="680.0" font-family="Arial, sans-serif" font-size="11" text-anchor="start" fill="#202124">90.0% complete (3,837/4,265)</text>
<text x="12.0" y="705.0" font-family="Arial, sans-serif" font-size="12" text-anchor="start" fill="#202124">Supercomputing</text>
<rect x="230" y="692" width="740" height="14" fill="#e8eaed"/>
<rect x="230" y="692" width="646.8" height="14" fill="#188038"/>
<rect x="876.8" y="692" width="70.3" height="14" fill="#d93025"/>
<rect x="947.1" y="692" width="22.9" height="14" fill="#fbbc04"/>
<text x="982.0" y="704.0" font-family="Arial, sans-serif" font-size="11" text-anchor="start" fill="#202124">87.4% complete (2,171/2,484)</text>
<text x="12.0" y="729.0" font-family="Arial, sans-serif" font-size="12" text-anchor="start" fill="#202124">UbiComp</text>
<rect x="230" y="716" width="740" height="14" fill="#e8eaed"/>
<rect x="230" y="716" width="624.4" height="14" fill="#188038"/>
<rect x="854.4" y="716" width="115.6" height="14" fill="#d93025"/>
<text x="982.0" y="728.0" font-family="Arial, sans-serif" font-size="11" text-anchor="start" fill="#202124">84.4% complete (1,005/1,191)</text>
<text x="12.0" y="753.0" font-family="Arial, sans-serif" font-size="12" text-anchor="start" fill="#202124">VMV</text>
<rect x="230" y="740" width="740" height="14" fill="#e8eaed"/>
<rect x="230" y="740" width="330.6" height="14" fill="#188038"/>
<rect x="560.6" y="740" width="2.7" height="14" fill="#d93025"/>
<rect x="563.3" y="740" width="406.7" height="14" fill="#fbbc04"/>
<text x="982.0" y="752.0" font-family="Arial, sans-serif" font-size="11" text-anchor="start" fill="#202124">44.7% complete (369/826)</text>
<text x="12.0" y="777.0" font-family="Arial, sans-serif" font-size="12" text-anchor="start" fill="#202124">Graphics Interface</text>
<rect x="230" y="764" width="740" height="14" fill="#e8eaed"/>
<rect x="230" y="764" width="223.5" height="14" fill="#188038"/>
<rect x="453.5" y="764" width="0.8" height="14" fill="#d93025"/>
<rect x="454.3" y="764" width="515.7" height="14" fill="#fbbc04"/>
<text x="982.0" y="776.0" font-family="Arial, sans-serif" font-size="11" text-anchor="start" fill="#202124">30.2% complete (276/914)</text>
<text x="12.0" y="801.0" font-family="Arial, sans-serif" font-size="12" text-anchor="start" fill="#202124">Interact</text>
<rect x="230" y="788" width="740" height="14" fill="#e8eaed"/>
<rect x="230" y="788" width="173.0" height="14" fill="#188038"/>
<rect x="403.0" y="788" width="361.1" height="14" fill="#d93025"/>
<rect x="764.1" y="788" width="205.9" height="14" fill="#fbbc04"/>
<text x="982.0" y="800.0" font-family="Arial, sans-serif" font-size="11" text-anchor="start" fill="#202124">23.4% complete (742/3,174)</text>
<text x="12.0" y="825.0" font-family="Arial, sans-serif" font-size="12" text-anchor="start" fill="#202124">BCS HCI</text>
<rect x="230" y="812" width="740" height="14" fill="#e8eaed"/>
<rect x="230" y="812" width="118.2" height="14" fill="#188038"/>
<rect x="348.2" y="812" width="95.6" height="14" fill="#d93025"/>
<rect x="443.7" y="812" width="526.3" height="14" fill="#fbbc04"/>
<text x="982.0" y="824.0" font-family="Arial, sans-serif" font-size="11" text-anchor="start" fill="#202124">16.0% complete (183/1,146)</text>
<text x="12.0" y="849.0" font-family="Arial, sans-serif" font-size="12" text-anchor="start" fill="#202124">Diagrams</text>
<rect x="230" y="836" width="740" height="14" fill="#e8eaed"/>
<rect x="230" y="836" width="76.2" height="14" fill="#188038"/>
<rect x="306.2" y="836" width="663.8" height="14" fill="#d93025"/>
<text x="982.0" y="848.0" font-family="Arial, sans-serif" font-size="11" text-anchor="start" fill="#202124">10.3% complete (69/670)</text>
<text x="12.0" y="873.0" font-family="Arial, sans-serif" font-size="12" text-anchor="start" fill="#202124">Journal of Vis.</text>
<rect x="230" y="860" width="740" height="14" fill="#e8eaed"/>
<rect x="230" y="860" width="65.9" height="14" fill="#188038"/>
<rect x="295.9" y="860" width="674.1" height="14" fill="#d93025"/>
<text x="982.0" y="872.0" font-family="Arial, sans-serif" font-size="11" text-anchor="start" fill="#202124">8.9% complete (143/1,606)</text>
<text x="12.0" y="897.0" font-family="Arial, sans-serif" font-size="12" text-anchor="start" fill="#202124">The Visual Computer</text>
<rect x="230" y="884" width="740" height="14" fill="#e8eaed"/>
<rect x="230" y="884" width="64.4" height="14" fill="#188038"/>
<rect x="294.4" y="884" width="675.0" height="14" fill="#d93025"/>
<rect x="969.4" y="884" width="0.6" height="14" fill="#fbbc04"/>
<text x="982.0" y="896.0" font-family="Arial, sans-serif" font-size="11" text-anchor="start" fill="#202124">8.7% complete (468/5,374)</text>
<text x="230.0" y="932.0" font-family="Arial, sans-serif" font-size="11" text-anchor="start" fill="#202124">green = complete, red = missing abstract, yellow = missing DOI</text>
</svg>