<svg xmlns="http://www.w3.org/2000/svg" width="1178" height="520" viewBox="0 0 1178 520">
<rect width="100%" height="100%" fill="#ffffff"/>
<text x="20.0" y="26.0" font-family="Arial, sans-serif" font-size="18" text-anchor="start" fill="#202124">BCS HCI year distribution</text>
<line x1="70" y1="428" x2="1150" y2="428" stroke="#5f6368"/>
<line x1="70" y1="44" x2="70" y2="428" stroke="#5f6368"/>
<line x1="70" y1="428.0" x2="1150" y2="428.0" stroke="#f1f3f4"/>
<text x="62.0" y="432.0" font-family="Arial, sans-serif" font-size="10" text-anchor="end" fill="#202124">0</text>
<line x1="70" y1="332.0" x2="1150" y2="332.0" stroke="#f1f3f4"/>
<text x="62.0" y="336.0" font-family="Arial, sans-serif" font-size="10" text-anchor="end" fill="#202124">26</text>
<line x1="70" y1="236.0" x2="1150" y2="236.0" stroke="#f1f3f4"/>
<text x="62.0" y="240.0" font-family="Arial, sans-serif" font-size="10" text-anchor="end" fill="#202124">52</text>
<line x1="70" y1="140.0" x2="1150" y2="140.0" stroke="#f1f3f4"/>
<text x="62.0" y="144.0" font-family="Arial, sans-serif" font-size="10" text-anchor="end" fill="#202124">78</text>
<line x1="70" y1="44.0" x2="1150" y2="44.0" stroke="#f1f3f4"/>
<text x="62.0" y="48.0" font-family="Arial, sans-serif" font-size="10" text-anchor="end" fill="#202124">105</text>
<rect x="70.0" y="325.6" width="32.9" height="102.4" fill="#188038"/>
<text x="86.5" y="446" font-family="Arial, sans-serif" font-size="10" text-anchor="middle" fill="#202124" transform="rotate(45 86.5 446)">1987</text>
<rect x="104.9" y="296.3" width="32.9" height="131.7" fill="#188038"/>
<rect x="139.8" y="428.0" width="32.9" height="0.0" fill="#188038"/>
<rect x="174.7" y="428.0" width="32.9" height="0.0" fill="#188038"/>
<rect x="209.6" y="428.0" width="32.9" height="0.0" fill="#188038"/>
<rect x="244.5" y="428.0" width="32.9" height="0.0" fill="#188038"/>
<text x="261.0" y="446" font-family="Arial, sans-serif" font-size="10" text-anchor="middle" fill="#202124" transform="rotate(45 261.0 446)">1992</text>
<rect x="279.4" y="428.0" width="32.9" height="0.0" fill="#188038"/>
<rect x="314.3" y="318.3" width="32.9" height="109.7" fill="#188038"/>
<rect x="349.2" y="321.9" width="32.9" height="106.1" fill="#188038"/>
<rect x="384.1" y="340.2" width="32.9" height="87.8" fill="#188038"/>
<rect x="419.0" y="343.9" width="32.9" height="84.1" fill="#188038"/>
<text x="435.5" y="446" font-family="Arial, sans-serif" font-size="10" text-anchor="middle" fill="#202124" transform="rotate(45 435.5 446)">1997</text>
<rect x="453.9" y="351.2" width="32.9" height="76.8" fill="#188038"/>
<rect x="488.8" y="428.0" width="32.9" height="0.0" fill="#188038"/>
<rect x="523.7" y="321.9" width="32.9" height="106.1" fill="#188038"/>
<rect x="558.6" y="428.0" width="32.9" height="0.0" fill="#188038"/>
<rect x="593.5" y="428.0" width="32.9" height="0.0" fill="#188038"/>
<text x="610.0" y="446" font-family="Arial, sans-serif" font-size="10" text-anchor="middle" fill="#202124" transform="rotate(45 610.0 446)">2002</text>
<rect x="628.5" y="428.0" width="32.9" height="0.0" fill="#188038"/>
<rect x="663.4" y="343.9" width="32.9" height="84.1" fill="#188038"/>
<rect x="698.3" y="314.6" width="32.9" height="113.4" fill="#188038"/>
<rect x="733.2" y="428.0" width="32.9" height="0.0" fill="#188038"/>
<rect x="768.1" y="58.6" width="32.9" height="369.4" fill="#188038"/>
<text x="784.5" y="446" font-family="Arial, sans-serif" font-size="10" text-anchor="middle" fill="#202124" transform="rotate(45 784.5 446)">2007</text>
<rect x="803.0" y="73.3" width="32.9" height="354.7" fill="#188038"/>
<rect x="837.9" y="183.0" width="32.9" height="245.0" fill="#188038"/>
<rect x="872.8" y="212.2" width="32.9" height="215.8" fill="#188038"/>
<rect x="907.7" y="109.8" width="32.9" height="318.2" fill="#188038"/>
<rect x="942.6" y="219.5" width="32.9" height="208.5" fill="#188038"/>
<text x="959.0" y="446" font-family="Arial, sans-serif" font-size="10" text-anchor="middle" fill="#202124" transform="rotate(45 959.0 446)">2012</text>
<rect x="977.5" y="201.3" width="32.9" height="226.7" fill="#188038"/>
<rect x="1012.4" y="219.5" width="32.9" height="208.5" fill="#188038"/>
<rect x="1047.3" y="153.7" width="32.9" height="274.3" fill="#188038"/>
<rect x="1082.2" y="44.0" width="32.9" height="384.0" fill="#188038"/>
<rect x="1117.1" y="44.0" width="32.9" height="384.0" fill="#188038"/>
<text x="1133.5" y="446" font-family="Arial, sans-serif" font-size="10" text-anchor="middle" fill="#202124" transform="rotate(45 1133.5 446)">2017</text>
</svg>