<svg xmlns="http://www.w3.org/2000/svg" width="900" height="520" viewBox="0 0 900 520">
<rect width="100%" height="100%" fill="#ffffff"/>
<text x="20.0" y="26.0" font-family="Arial, sans-serif" font-size="18" text-anchor="start" fill="#202124">BELIV year distribution</text>
<line x1="70" y1="428" x2="872" y2="428" stroke="#5f6368"/>
<line x1="70" y1="44" x2="70" y2="428" stroke="#5f6368"/>
<line x1="70" y1="428.0" x2="872" y2="428.0" stroke="#f1f3f4"/>
<text x="62.0" y="432.0" font-family="Arial, sans-serif" font-size="10" text-anchor="end" fill="#202124">0</text>
<line x1="70" y1="332.0" x2="872" y2="332.0" stroke="#f1f3f4"/>
<text x="62.0" y="336.0" font-family="Arial, sans-serif" font-size="10" text-anchor="end" fill="#202124">5</text>
<line x1="70" y1="236.0" x2="872" y2="236.0" stroke="#f1f3f4"/>
<text x="62.0" y="240.0" font-family="Arial, sans-serif" font-size="10" text-anchor="end" fill="#202124">11</text>
<line x1="70" y1="140.0" x2="872" y2="140.0" stroke="#f1f3f4"/>
<text x="62.0" y="144.0" font-family="Arial, sans-serif" font-size="10" text-anchor="end" fill="#202124">17</text>
<line x1="70" y1="44.0" x2="872" y2="44.0" stroke="#f1f3f4"/>
<text x="62.0" y="48.0" font-family="Arial, sans-serif" font-size="10" text-anchor="end" fill="#202124">23</text>
<rect x="70.0" y="177.6" width="40.3" height="250.4" fill="#188038"/>
<text x="90.2" y="446" font-family="Arial, sans-serif" font-size="10" text-anchor="middle" fill="#202124" transform="rotate(45 90.2 446)">2006</text>
<rect x="112.3" y="428.0" width="40.3" height="0.0" fill="#188038"/>
<rect x="154.6" y="261.0" width="40.3" height="167.0" fill="#188038"/>
<rect x="196.9" y="428.0" width="40.3" height="0.0" fill="#188038"/>
<rect x="239.3" y="227.7" width="40.3" height="200.3" fill="#188038"/>
<rect x="281.6" y="428.0" width="40.3" height="0.0" fill="#188038"/>
<text x="301.7" y="446" font-family="Arial, sans-serif" font-size="10" text-anchor="middle" fill="#202124" transform="rotate(45 301.7 446)">2011</text>
<rect x="323.9" y="144.2" width="40.3" height="283.8" fill="#188038"/>
<rect x="366.2" y="428.0" width="40.3" height="0.0" fill="#188038"/>
<rect x="408.5" y="44.0" width="40.3" height="384.0" fill="#188038"/>
<rect x="450.8" y="428.0" width="40.3" height="0.0" fill="#188038"/>
<rect x="493.2" y="110.8" width="40.3" height="317.2" fill="#188038"/>
<text x="513.3" y="446" font-family="Arial, sans-serif" font-size="10" text-anchor="middle" fill="#202124" transform="rotate(45 513.3 446)">2016</text>
<rect x="535.5" y="428.0" width="40.3" height="0.0" fill="#188038"/>
<rect x="577.8" y="211.0" width="40.3" height="217.0" fill="#188038"/>
<rect x="620.1" y="428.0" width="40.3" height="0.0" fill="#188038"/>
<rect x="662.4" y="261.0" width="40.3" height="167.0" fill="#188038"/>
<rect x="704.7" y="428.0" width="40.3" height="0.0" fill="#188038"/>
<text x="724.9" y="446" font-family="Arial, sans-serif" font-size="10" text-anchor="middle" fill="#202124" transform="rotate(45 724.9 446)">2021</text>
<rect x="747.1" y="261.0" width="40.3" height="167.0" fill="#188038"/>
<rect x="789.4" y="428.0" width="40.3" height="0.0" fill="#188038"/>
<rect x="831.7" y="160.9" width="40.3" height="267.1" fill="#188038"/>
<text x="851.8" y="446" font-family="Arial, sans-serif" font-size="10" text-anchor="middle" fill="#202124" transform="rotate(45 851.8 446)">2024</text>
</svg>