<svg xmlns="http://www.w3.org/2000/svg" width="1672" height="520" viewBox="0 0 1672 520">
<rect width="100%" height="100%" fill="#ffffff"/>
<text x="20.0" y="26.0" font-family="Arial, sans-serif" font-size="18" text-anchor="start" fill="#202124">CGF year distribution</text>
<line x1="70" y1="428" x2="1644" y2="428" stroke="#5f6368"/>
<line x1="70" y1="44" x2="70" y2="428" stroke="#5f6368"/>
<line x1="70" y1="428.0" x2="1644" y2="428.0" stroke="#f1f3f4"/>
<text x="62.0" y="432.0" font-family="Arial, sans-serif" font-size="10" text-anchor="end" fill="#202124">0</text>
<line x1="70" y1="332.0" x2="1644" y2="332.0" stroke="#f1f3f4"/>
<text x="62.0" y="336.0" font-family="Arial, sans-serif" font-size="10" text-anchor="end" fill="#202124">78</text>
<line x1="70" y1="236.0" x2="1644" y2="236.0" stroke="#f1f3f4"/>
<text x="62.0" y="240.0" font-family="Arial, sans-serif" font-size="10" text-anchor="end" fill="#202124">156</text>
<line x1="70" y1="140.0" x2="1644" y2="140.0" stroke="#f1f3f4"/>
<text x="62.0" y="144.0" font-family="Arial, sans-serif" font-size="10" text-anchor="end" fill="#202124">234</text>
<line x1="70" y1="44.0" x2="1644" y2="44.0" stroke="#f1f3f4"/>
<text x="62.0" y="48.0" font-family="Arial, sans-serif" font-size="10" text-anchor="end" fill="#202124">312</text>
<rect x="70.0" y="394.8" width="33.8" height="33.2" fill="#188038"/>
<text x="86.9" y="446" font-family="Arial, sans-serif" font-size="10" text-anchor="middle" fill="#202124" transform="rotate(45 86.9 446)">1982</text>
<rect x="105.8" y="397.2" width="33.8" height="30.8" fill="#188038"/>
<rect x="141.6" y="376.3" width="33.8" height="51.7" fill="#188038"/>
<rect x="177.5" y="361.5" width="33.8" height="66.5" fill="#188038"/>
<rect x="213.3" y="386.2" width="33.8" height="41.8" fill="#188038"/>
<rect x="249.1" y="391.1" width="33.8" height="36.9" fill="#188038"/>
<text x="266.0" y="446" font-family="Arial, sans-serif" font-size="10" text-anchor="middle" fill="#202124" transform="rotate(45 266.0 446)">1987</text>
<rect x="284.9" y="398.5" width="33.8" height="29.5" fill="#188038"/>
<rect x="320.7" y="397.2" width="33.8" height="30.8" fill="#188038"/>
<rect x="356.5" y="398.5" width="33.8" height="29.5" fill="#188038"/>
<rect x="392.4" y="397.2" width="33.8" height="30.8" fill="#188038"/>
<rect x="428.2" y="352.9" width="33.8" height="75.1" fill="#188038"/>
<text x="445.1" y="446" font-family="Arial, sans-serif" font-size="10" text-anchor="middle" fill="#202124" transform="rotate(45 445.1 446)">1992</text>
<rect x="464.0" y="348.0" width="33.8" height="80.0" fill="#188038"/>
<rect x="499.8" y="346.8" width="33.8" height="81.2" fill="#188038"/>
<rect x="535.6" y="355.4" width="33.8" height="72.6" fill="#188038"/>
<rect x="571.5" y="348.0" width="33.8" height="80.0" fill="#188038"/>
<rect x="607.3" y="354.2" width="33.8" height="73.8" fill="#188038"/>
<text x="624.2" y="446" font-family="Arial, sans-serif" font-size="10" text-anchor="middle" fill="#202124" transform="rotate(45 624.2 446)">1997</text>
<rect x="643.1" y="367.7" width="33.8" height="60.3" fill="#188038"/>
<rect x="678.9" y="355.4" width="33.8" height="72.6" fill="#188038"/>
<rect x="714.7" y="334.5" width="33.8" height="93.5" fill="#188038"/>
<rect x="750.5" y="323.4" width="33.8" height="104.6" fill="#188038"/>
<rect x="786.4" y="338.2" width="33.8" height="89.8" fill="#188038"/>
<text x="803.3" y="446" font-family="Arial, sans-serif" font-size="10" text-anchor="middle" fill="#202124" transform="rotate(45 803.3 446)">2002</text>
<rect x="822.2" y="336.9" width="33.8" height="91.1" fill="#188038"/>
<rect x="858.0" y="340.6" width="33.8" height="87.4" fill="#188038"/>
<rect x="893.8" y="335.7" width="33.8" height="92.3" fill="#188038"/>
<rect x="929.6" y="333.2" width="33.8" height="94.8" fill="#188038"/>
<rect x="965.5" y="332.0" width="33.8" height="96.0" fill="#188038"/>
<text x="982.4" y="446" font-family="Arial, sans-serif" font-size="10" text-anchor="middle" fill="#202124" transform="rotate(45 982.4 446)">2007</text>
<rect x="1001.3" y="147.4" width="33.8" height="280.6" fill="#188038"/>
<rect x="1037.1" y="142.5" width="33.8" height="285.5" fill="#188038"/>
<rect x="1072.9" y="120.3" width="33.8" height="307.7" fill="#188038"/>
<rect x="1108.7" y="138.8" width="33.8" height="289.2" fill="#188038"/>
<rect x="1144.5" y="135.1" width="33.8" height="292.9" fill="#188038"/>
<text x="1161.5" y="446" font-family="Arial, sans-serif" font-size="10" text-anchor="middle" fill="#202124" transform="rotate(45 1161.5 446)">2012</text>
<rect x="1180.4" y="131.4" width="33.8" height="296.6" fill="#188038"/>
<rect x="1216.2" y="135.1" width="33.8" height="292.9" fill="#188038"/>
<rect x="1252.0" y="132.6" width="33.8" height="295.4" fill="#188038"/>
<rect x="1287.8" y="133.8" width="33.8" height="294.2" fill="#188038"/>
<rect x="1323.6" y="121.5" width="33.8" height="306.5" fill="#188038"/>
<text x="1340.5" y="446" font-family="Arial, sans-serif" font-size="10" text-anchor="middle" fill="#202124" transform="rotate(45 1340.5 446)">2017</text>
<rect x="1359.5" y="105.5" width="33.8" height="322.5" fill="#188038"/>
<rect x="1395.3" y="84.6" width="33.8" height="343.4" fill="#188038"/>
<rect x="1431.1" y="44.0" width="33.8" height="384.0" fill="#188038"/>
<rect x="1466.9" y="130.2" width="33.8" height="297.8" fill="#188038"/>
<rect x="1502.7" y="89.5" width="33.8" height="338.5" fill="#188038"/>
<text x="1519.6" y="446" font-family="Arial, sans-serif" font-size="10" text-anchor="middle" fill="#202124" transform="rotate(45 1519.6 446)">2022</text>
<rect x="1538.5" y="125.2" width="33.8" height="302.8" fill="#188038"/>
<rect x="1574.4" y="110.5" width="33.8" height="317.5" fill="#188038"/>
<rect x="1610.2" y="74.8" width="33.8" height="353.2" fill="#188038"/>
<text x="1627.1" y="446" font-family="Arial, sans-serif" font-size="10" text-anchor="middle" fill="#202124" transform="rotate(45 1627.1 446)">2025</text>
</svg>