<svg xmlns="http://www.w3.org/2000/svg" width="1748" height="520" viewBox="0 0 1748 520">
<rect width="100%" height="100%" fill="#ffffff"/>
<text x="20.0" y="26.0" font-family="Arial, sans-serif" font-size="18" text-anchor="start" fill="#202124">CHI year distribution</text>
<line x1="70" y1="428" x2="1720" y2="428" stroke="#5f6368"/>
<line x1="70" y1="44" x2="70" y2="428" stroke="#5f6368"/>
<line x1="70" y1="428.0" x2="1720" y2="428.0" stroke="#f1f3f4"/>
<text x="62.0" y="432.0" font-family="Arial, sans-serif" font-size="10" text-anchor="end" fill="#202124">0</text>
<line x1="70" y1="332.0" x2="1720" y2="332.0" stroke="#f1f3f4"/>
<text x="62.0" y="336.0" font-family="Arial, sans-serif" font-size="10" text-anchor="end" fill="#202124">676</text>
<line x1="70" y1="236.0" x2="1720" y2="236.0" stroke="#f1f3f4"/>
<text x="62.0" y="240.0" font-family="Arial, sans-serif" font-size="10" text-anchor="end" fill="#202124">1,353</text>
<line x1="70" y1="140.0" x2="1720" y2="140.0" stroke="#f1f3f4"/>
<text x="62.0" y="144.0" font-family="Arial, sans-serif" font-size="10" text-anchor="end" fill="#202124">2,030</text>
<line x1="70" y1="44.0" x2="1720" y2="44.0" stroke="#f1f3f4"/>
<text x="62.0" y="48.0" font-family="Arial, sans-serif" font-size="10" text-anchor="end" fill="#202124">2,707</text>
<rect x="70.0" y="416.8" width="33.9" height="11.2" fill="#188038"/>
<text x="87.0" y="446" font-family="Arial, sans-serif" font-size="10" text-anchor="middle" fill="#202124" transform="rotate(45 87.0 446)">1981</text>
<rect x="105.9" y="417.4" width="33.9" height="10.6" fill="#188038"/>
<rect x="141.8" y="419.8" width="33.9" height="8.2" fill="#188038"/>
<rect x="177.7" y="428.0" width="33.9" height="0.0" fill="#188038"/>
<rect x="213.7" y="422.2" width="33.9" height="5.8" fill="#188038"/>
<rect x="249.6" y="420.2" width="33.9" height="7.8" fill="#188038"/>
<text x="266.5" y="446" font-family="Arial, sans-serif" font-size="10" text-anchor="middle" fill="#202124" transform="rotate(45 266.5 446)">1986</text>
<rect x="285.5" y="419.8" width="33.9" height="8.2" fill="#188038"/>
<rect x="321.4" y="421.2" width="33.9" height="6.8" fill="#188038"/>
<rect x="357.3" y="417.6" width="33.9" height="10.4" fill="#188038"/>
<rect x="393.2" y="417.9" width="33.9" height="10.1" fill="#188038"/>
<rect x="429.1" y="414.1" width="33.9" height="13.9" fill="#188038"/>
<text x="446.1" y="446" font-family="Arial, sans-serif" font-size="10" text-anchor="middle" fill="#202124" transform="rotate(45 446.1 446)">1991</text>
<rect x="465.0" y="412.1" width="33.9" height="15.9" fill="#188038"/>
<rect x="501.0" y="428.0" width="33.9" height="0.0" fill="#188038"/>
<rect x="536.9" y="377.1" width="33.9" height="50.9" fill="#188038"/>
<rect x="572.8" y="383.6" width="33.9" height="44.4" fill="#188038"/>
<rect x="608.7" y="385.4" width="33.9" height="42.6" fill="#188038"/>
<text x="625.7" y="446" font-family="Arial, sans-serif" font-size="10" text-anchor="middle" fill="#202124" transform="rotate(45 625.7 446)">1996</text>
<rect x="644.6" y="388.1" width="33.9" height="39.9" fill="#188038"/>
<rect x="680.5" y="416.5" width="33.9" height="11.5" fill="#188038"/>
<rect x="716.4" y="389.3" width="33.9" height="38.7" fill="#188038"/>
<rect x="752.3" y="388.7" width="33.9" height="39.3" fill="#188038"/>
<rect x="788.3" y="382.5" width="33.9" height="45.5" fill="#188038"/>
<text x="805.2" y="446" font-family="Arial, sans-serif" font-size="10" text-anchor="middle" fill="#202124" transform="rotate(45 805.2 446)">2001</text>
<rect x="824.2" y="388.7" width="33.9" height="39.3" fill="#188038"/>
<rect x="860.1" y="385.3" width="33.9" height="42.7" fill="#188038"/>
<rect x="896.0" y="375.4" width="33.9" height="52.6" fill="#188038"/>
<rect x="931.9" y="371.0" width="33.9" height="57.0" fill="#188038"/>
<rect x="967.8" y="357.9" width="33.9" height="70.1" fill="#188038"/>
<text x="984.8" y="446" font-family="Arial, sans-serif" font-size="10" text-anchor="middle" fill="#202124" transform="rotate(45 984.8 446)">2006</text>
<rect x="1003.7" y="370.1" width="33.9" height="57.9" fill="#188038"/>
<rect x="1039.7" y="349.6" width="33.9" height="78.4" fill="#188038"/>
<rect x="1075.6" y="334.1" width="33.9" height="93.9" fill="#188038"/>
<rect x="1111.5" y="334.7" width="33.9" height="93.3" fill="#188038"/>
<rect x="1147.4" y="313.0" width="33.9" height="115.0" fill="#188038"/>
<text x="1164.3" y="446" font-family="Arial, sans-serif" font-size="10" text-anchor="middle" fill="#202124" transform="rotate(45 1164.3 446)">2011</text>
<rect x="1183.3" y="311.5" width="33.9" height="116.5" fill="#188038"/>
<rect x="1219.2" y="284.2" width="33.9" height="143.8" fill="#188038"/>
<rect x="1255.1" y="291.5" width="33.9" height="136.5" fill="#188038"/>
<rect x="1291.0" y="295.2" width="33.9" height="132.8" fill="#188038"/>
<rect x="1327.0" y="267.8" width="33.9" height="160.2" fill="#188038"/>
<text x="1343.9" y="446" font-family="Arial, sans-serif" font-size="10" text-anchor="middle" fill="#202124" transform="rotate(45 1343.9 446)">2016</text>
<rect x="1362.9" y="277.9" width="33.9" height="150.1" fill="#188038"/>
<rect x="1398.8" y="255.8" width="33.9" height="172.2" fill="#188038"/>
<rect x="1434.7" y="243.6" width="33.9" height="184.4" fill="#188038"/>
<rect x="1470.6" y="240.8" width="33.9" height="187.2" fill="#188038"/>
<rect x="1506.5" y="251.7" width="33.9" height="176.3" fill="#188038"/>
<text x="1523.5" y="446" font-family="Arial, sans-serif" font-size="10" text-anchor="middle" fill="#202124" transform="rotate(45 1523.5 446)">2021</text>
<rect x="1542.4" y="268.0" width="33.9" height="160.0" fill="#188038"/>
<rect x="1578.3" y="218.3" width="33.9" height="209.7" fill="#188038"/>
<rect x="1614.3" y="186.1" width="33.9" height="241.9" fill="#188038"/>
<rect x="1650.2" y="120.3" width="33.9" height="307.7" fill="#188038"/>
<rect x="1686.1" y="44.0" width="33.9" height="384.0" fill="#188038"/>
<text x="1703.0" y="446" font-family="Arial, sans-serif" font-size="10" text-anchor="middle" fill="#202124" transform="rotate(45 1703.0 446)">2026</text>
</svg>