<svg xmlns="http://www.w3.org/2000/svg" width="1800" height="520" viewBox="0 0 1800 520">
<rect width="100%" height="100%" fill="#ffffff"/>
<text x="20.0" y="26.0" font-family="Arial, sans-serif" font-size="18" text-anchor="start" fill="#202124">Cognitive Science year distribution</text>
<line x1="70" y1="428" x2="1772" y2="428" stroke="#5f6368"/>
<line x1="70" y1="44" x2="70" y2="428" stroke="#5f6368"/>
<line x1="70" y1="428.0" x2="1772" y2="428.0" stroke="#f1f3f4"/>
<text x="62.0" y="432.0" font-family="Arial, sans-serif" font-size="10" text-anchor="end" fill="#202124">0</text>
<line x1="70" y1="332.0" x2="1772" y2="332.0" stroke="#f1f3f4"/>
<text x="62.0" y="336.0" font-family="Arial, sans-serif" font-size="10" text-anchor="end" fill="#202124">39</text>
<line x1="70" y1="236.0" x2="1772" y2="236.0" stroke="#f1f3f4"/>
<text x="62.0" y="240.0" font-family="Arial, sans-serif" font-size="10" text-anchor="end" fill="#202124">79</text>
<line x1="70" y1="140.0" x2="1772" y2="140.0" stroke="#f1f3f4"/>
<text x="62.0" y="144.0" font-family="Arial, sans-serif" font-size="10" text-anchor="end" fill="#202124">119</text>
<line x1="70" y1="44.0" x2="1772" y2="44.0" stroke="#f1f3f4"/>
<text x="62.0" y="48.0" font-family="Arial, sans-serif" font-size="10" text-anchor="end" fill="#202124">159</text>
<rect x="70.0" y="391.8" width="32.8" height="36.2" fill="#188038"/>
<text x="86.4" y="446" font-family="Arial, sans-serif" font-size="10" text-anchor="middle" fill="#202124" transform="rotate(45 86.4 446)">1977</text>
<rect x="104.8" y="384.5" width="32.8" height="43.5" fill="#188038"/>
<rect x="139.6" y="386.9" width="32.8" height="41.1" fill="#188038"/>
<rect x="174.3" y="384.5" width="32.8" height="43.5" fill="#188038"/>
<rect x="209.1" y="391.8" width="32.8" height="36.2" fill="#188038"/>
<rect x="243.9" y="401.4" width="32.8" height="26.6" fill="#188038"/>
<text x="260.3" y="446" font-family="Arial, sans-serif" font-size="10" text-anchor="middle" fill="#202124" transform="rotate(45 260.3 446)">1982</text>
<rect x="278.7" y="399.0" width="32.8" height="29.0" fill="#188038"/>
<rect x="313.4" y="389.4" width="32.8" height="38.6" fill="#188038"/>
<rect x="348.2" y="386.9" width="32.8" height="41.1" fill="#188038"/>
<rect x="383.0" y="384.5" width="32.8" height="43.5" fill="#188038"/>
<rect x="417.8" y="372.5" width="32.8" height="55.5" fill="#188038"/>
<text x="434.1" y="446" font-family="Arial, sans-serif" font-size="10" text-anchor="middle" fill="#202124" transform="rotate(45 434.1 446)">1987</text>
<rect x="452.5" y="382.1" width="32.8" height="45.9" fill="#188038"/>
<rect x="487.3" y="379.7" width="32.8" height="48.3" fill="#188038"/>
<rect x="522.1" y="379.7" width="32.8" height="48.3" fill="#188038"/>
<rect x="556.9" y="386.9" width="32.8" height="41.1" fill="#188038"/>
<rect x="591.6" y="389.4" width="32.8" height="38.6" fill="#188038"/>
<text x="608.0" y="446" font-family="Arial, sans-serif" font-size="10" text-anchor="middle" fill="#202124" transform="rotate(45 608.0 446)">1992</text>
<rect x="626.4" y="372.5" width="32.8" height="55.5" fill="#188038"/>
<rect x="661.2" y="386.9" width="32.8" height="41.1" fill="#188038"/>
<rect x="696.0" y="391.8" width="32.8" height="36.2" fill="#188038"/>
<rect x="730.7" y="391.8" width="32.8" height="36.2" fill="#188038"/>
<rect x="765.5" y="394.2" width="32.8" height="33.8" fill="#188038"/>
<text x="781.9" y="446" font-family="Arial, sans-serif" font-size="10" text-anchor="middle" fill="#202124" transform="rotate(45 781.9 446)">1997</text>
<rect x="800.3" y="391.8" width="32.8" height="36.2" fill="#188038"/>
<rect x="835.1" y="377.3" width="32.8" height="50.7" fill="#188038"/>
<rect x="869.8" y="377.3" width="32.8" height="50.7" fill="#188038"/>
<rect x="904.6" y="358.0" width="32.8" height="70.0" fill="#188038"/>
<rect x="939.4" y="358.0" width="32.8" height="70.0" fill="#188038"/>
<text x="955.8" y="446" font-family="Arial, sans-serif" font-size="10" text-anchor="middle" fill="#202124" transform="rotate(45 955.8 446)">2002</text>
<rect x="974.2" y="331.4" width="32.8" height="96.6" fill="#188038"/>
<rect x="1008.9" y="324.2" width="32.8" height="103.8" fill="#188038"/>
<rect x="1043.7" y="331.4" width="32.8" height="96.6" fill="#188038"/>
<rect x="1078.5" y="324.2" width="32.8" height="103.8" fill="#188038"/>
<rect x="1113.3" y="324.2" width="32.8" height="103.8" fill="#188038"/>
<text x="1129.7" y="446" font-family="Arial, sans-serif" font-size="10" text-anchor="middle" fill="#202124" transform="rotate(45 1129.7 446)">2007</text>
<rect x="1148.0" y="290.3" width="32.8" height="137.7" fill="#188038"/>
<rect x="1182.8" y="278.3" width="32.8" height="149.7" fill="#188038"/>
<rect x="1217.6" y="263.8" width="32.8" height="164.2" fill="#188038"/>
<rect x="1252.4" y="287.9" width="32.8" height="140.1" fill="#188038"/>
<rect x="1287.1" y="258.9" width="32.8" height="169.1" fill="#188038"/>
<text x="1303.5" y="446" font-family="Arial, sans-serif" font-size="10" text-anchor="middle" fill="#202124" transform="rotate(45 1303.5 446)">2012</text>
<rect x="1321.9" y="278.3" width="32.8" height="149.7" fill="#188038"/>
<rect x="1356.7" y="273.4" width="32.8" height="154.6" fill="#188038"/>
<rect x="1391.5" y="232.4" width="32.8" height="195.6" fill="#188038"/>
<rect x="1426.2" y="225.1" width="32.8" height="202.9" fill="#188038"/>
<rect x="1461.0" y="213.1" width="32.8" height="214.9" fill="#188038"/>
<text x="1477.4" y="446" font-family="Arial, sans-serif" font-size="10" text-anchor="middle" fill="#202124" transform="rotate(45 1477.4 446)">2017</text>
<rect x="1495.8" y="133.4" width="32.8" height="294.6" fill="#188038"/>
<rect x="1530.6" y="213.1" width="32.8" height="214.9" fill="#188038"/>
<rect x="1565.3" y="176.8" width="32.8" height="251.2" fill="#188038"/>
<rect x="1600.1" y="102.0" width="32.8" height="326.0" fill="#188038"/>
<rect x="1634.9" y="97.1" width="32.8" height="330.9" fill="#188038"/>
<text x="1651.3" y="446" font-family="Arial, sans-serif" font-size="10" text-anchor="middle" fill="#202124" transform="rotate(45 1651.3 446)">2022</text>
<rect x="1669.7" y="44.0" width="32.8" height="384.0" fill="#188038"/>
<rect x="1704.4" y="128.5" width="32.8" height="299.5" fill="#188038"/>
<rect x="1739.2" y="164.8" width="32.8" height="263.2" fill="#188038"/>
<text x="1755.6" y="446" font-family="Arial, sans-serif" font-size="10" text-anchor="middle" fill="#202124" transform="rotate(45 1755.6 446)">2025</text>
</svg>