<svg xmlns="http://www.w3.org/2000/svg" width="1520" height="520" viewBox="0 0 1520 520">
<rect width="100%" height="100%" fill="#ffffff"/>
<text x="20.0" y="26.0" font-family="Arial, sans-serif" font-size="18" text-anchor="start" fill="#202124">CSCW year distribution</text>
<line x1="70" y1="428" x2="1492" y2="428" stroke="#5f6368"/>
<line x1="70" y1="44" x2="70" y2="428" stroke="#5f6368"/>
<line x1="70" y1="428.0" x2="1492" y2="428.0" stroke="#f1f3f4"/>
<text x="62.0" y="432.0" font-family="Arial, sans-serif" font-size="10" text-anchor="end" fill="#202124">0</text>
<line x1="70" y1="332.0" x2="1492" y2="332.0" stroke="#f1f3f4"/>
<text x="62.0" y="336.0" font-family="Arial, sans-serif" font-size="10" text-anchor="end" fill="#202124">71</text>
<line x1="70" y1="236.0" x2="1492" y2="236.0" stroke="#f1f3f4"/>
<text x="62.0" y="240.0" font-family="Arial, sans-serif" font-size="10" text-anchor="end" fill="#202124">142</text>
<line x1="70" y1="140.0" x2="1492" y2="140.0" stroke="#f1f3f4"/>
<text x="62.0" y="144.0" font-family="Arial, sans-serif" font-size="10" text-anchor="end" fill="#202124">213</text>
<line x1="70" y1="44.0" x2="1492" y2="44.0" stroke="#f1f3f4"/>
<text x="62.0" y="48.0" font-family="Arial, sans-serif" font-size="10" text-anchor="end" fill="#202124">285</text>
<rect x="70.0" y="380.8" width="33.6" height="47.2" fill="#188038"/>
<text x="86.8" y="446" font-family="Arial, sans-serif" font-size="10" text-anchor="middle" fill="#202124" transform="rotate(45 86.8 446)">1986</text>
<rect x="105.6" y="428.0" width="33.6" height="0.0" fill="#188038"/>
<rect x="141.2" y="387.6" width="33.6" height="40.4" fill="#188038"/>
<rect x="176.8" y="428.0" width="33.6" height="0.0" fill="#188038"/>
<rect x="212.4" y="387.6" width="33.6" height="40.4" fill="#188038"/>
<rect x="248.0" y="428.0" width="33.6" height="0.0" fill="#188038"/>
<text x="264.8" y="446" font-family="Arial, sans-serif" font-size="10" text-anchor="middle" fill="#202124" transform="rotate(45 264.8 446)">1991</text>
<rect x="283.6" y="364.7" width="33.6" height="63.3" fill="#188038"/>
<rect x="319.2" y="428.0" width="33.6" height="0.0" fill="#188038"/>
<rect x="354.8" y="375.5" width="33.6" height="52.5" fill="#188038"/>
<rect x="390.4" y="428.0" width="33.6" height="0.0" fill="#188038"/>
<rect x="426.0" y="298.7" width="33.6" height="129.3" fill="#188038"/>
<text x="442.8" y="446" font-family="Arial, sans-serif" font-size="10" text-anchor="middle" fill="#202124" transform="rotate(45 442.8 446)">1996</text>
<rect x="461.6" y="428.0" width="33.6" height="0.0" fill="#188038"/>
<rect x="497.2" y="363.3" width="33.6" height="64.7" fill="#188038"/>
<rect x="532.8" y="428.0" width="33.6" height="0.0" fill="#188038"/>
<rect x="568.4" y="357.9" width="33.6" height="70.1" fill="#188038"/>
<rect x="604.0" y="428.0" width="33.6" height="0.0" fill="#188038"/>
<text x="620.8" y="446" font-family="Arial, sans-serif" font-size="10" text-anchor="middle" fill="#202124" transform="rotate(45 620.8 446)">2001</text>
<rect x="639.6" y="375.5" width="33.6" height="52.5" fill="#188038"/>
<rect x="675.2" y="428.0" width="33.6" height="0.0" fill="#188038"/>
<rect x="710.8" y="320.2" width="33.6" height="107.8" fill="#188038"/>
<rect x="746.4" y="428.0" width="33.6" height="0.0" fill="#188038"/>
<rect x="782.0" y="344.5" width="33.6" height="83.5" fill="#188038"/>
<text x="798.8" y="446" font-family="Arial, sans-serif" font-size="10" text-anchor="middle" fill="#202124" transform="rotate(45 798.8 446)">2006</text>
<rect x="817.6" y="428.0" width="33.6" height="0.0" fill="#188038"/>
<rect x="853.2" y="312.1" width="33.6" height="115.9" fill="#188038"/>
<rect x="888.8" y="428.0" width="33.6" height="0.0" fill="#188038"/>
<rect x="924.4" y="349.9" width="33.6" height="78.1" fill="#188038"/>
<rect x="960.0" y="277.1" width="33.6" height="150.9" fill="#188038"/>
<text x="976.8" y="446" font-family="Arial, sans-serif" font-size="10" text-anchor="middle" fill="#202124" transform="rotate(45 976.8 446)">2011</text>
<rect x="995.6" y="65.6" width="33.6" height="362.4" fill="#188038"/>
<rect x="1031.2" y="138.3" width="33.6" height="289.7" fill="#188038"/>
<rect x="1066.8" y="126.2" width="33.6" height="301.8" fill="#188038"/>
<rect x="1102.4" y="104.6" width="33.6" height="323.4" fill="#188038"/>
<rect x="1138.0" y="68.3" width="33.6" height="359.7" fill="#188038"/>
<text x="1154.8" y="446" font-family="Arial, sans-serif" font-size="10" text-anchor="middle" fill="#202124" transform="rotate(45 1154.8 446)">2016</text>
<rect x="1173.6" y="44.0" width="33.6" height="384.0" fill="#188038"/>
<rect x="1209.2" y="281.1" width="33.6" height="146.9" fill="#188038"/>
<rect x="1244.8" y="285.2" width="33.6" height="142.8" fill="#188038"/>
<rect x="1280.4" y="313.5" width="33.6" height="114.5" fill="#188038"/>
<rect x="1316.0" y="310.8" width="33.6" height="117.2" fill="#188038"/>
<text x="1332.8" y="446" font-family="Arial, sans-serif" font-size="10" text-anchor="middle" fill="#202124" transform="rotate(45 1332.8 446)">2021</text>
<rect x="1351.6" y="340.4" width="33.6" height="87.6" fill="#188038"/>
<rect x="1387.2" y="266.3" width="33.6" height="161.7" fill="#188038"/>
<rect x="1422.8" y="240.7" width="33.6" height="187.3" fill="#188038"/>
<rect x="1458.4" y="286.5" width="33.6" height="141.5" fill="#188038"/>
<text x="1475.2" y="446" font-family="Arial, sans-serif" font-size="10" text-anchor="middle" fill="#202124" transform="rotate(45 1475.2 446)">2025</text>
</svg>