<svg xmlns="http://www.w3.org/2000/svg" width="950" height="520" viewBox="0 0 950 520">
<rect width="100%" height="100%" fill="#ffffff"/>
<text x="20.0" y="26.0" font-family="Arial, sans-serif" font-size="18" text-anchor="start" fill="#202124">Diagrams year distribution</text>
<line x1="70" y1="428" x2="922" y2="428" stroke="#5f6368"/>
<line x1="70" y1="44" x2="70" y2="428" stroke="#5f6368"/>
<line x1="70" y1="428.0" x2="922" y2="428.0" stroke="#f1f3f4"/>
<text x="62.0" y="432.0" font-family="Arial, sans-serif" font-size="10" text-anchor="end" fill="#202124">0</text>
<line x1="70" y1="332.0" x2="922" y2="332.0" stroke="#f1f3f4"/>
<text x="62.0" y="336.0" font-family="Arial, sans-serif" font-size="10" text-anchor="end" fill="#202124">20</text>
<line x1="70" y1="236.0" x2="922" y2="236.0" stroke="#f1f3f4"/>
<text x="62.0" y="240.0" font-family="Arial, sans-serif" font-size="10" text-anchor="end" fill="#202124">40</text>
<line x1="70" y1="140.0" x2="922" y2="140.0" stroke="#f1f3f4"/>
<text x="62.0" y="144.0" font-family="Arial, sans-serif" font-size="10" text-anchor="end" fill="#202124">60</text>
<line x1="70" y1="44.0" x2="922" y2="44.0" stroke="#f1f3f4"/>
<text x="62.0" y="48.0" font-family="Arial, sans-serif" font-size="10" text-anchor="end" fill="#202124">81</text>
<rect x="70.0" y="209.9" width="32.2" height="218.1" fill="#188038"/>
<text x="86.1" y="446" font-family="Arial, sans-serif" font-size="10" text-anchor="middle" fill="#202124" transform="rotate(45 86.1 446)">2000</text>
<rect x="104.2" y="428.0" width="32.2" height="0.0" fill="#188038"/>
<rect x="138.3" y="243.1" width="32.2" height="184.9" fill="#188038"/>
<rect x="172.5" y="428.0" width="32.2" height="0.0" fill="#188038"/>
<rect x="206.6" y="143.6" width="32.2" height="284.4" fill="#188038"/>
<rect x="240.8" y="428.0" width="32.2" height="0.0" fill="#188038"/>
<text x="256.9" y="446" font-family="Arial, sans-serif" font-size="10" text-anchor="middle" fill="#202124" transform="rotate(45 256.9 446)">2005</text>
<rect x="275.0" y="247.9" width="32.2" height="180.1" fill="#188038"/>
<rect x="309.1" y="428.0" width="32.2" height="0.0" fill="#188038"/>
<rect x="343.3" y="153.0" width="32.2" height="275.0" fill="#188038"/>
<rect x="377.4" y="428.0" width="32.2" height="0.0" fill="#188038"/>
<rect x="411.6" y="186.2" width="32.2" height="241.8" fill="#188038"/>
<text x="427.7" y="446" font-family="Arial, sans-serif" font-size="10" text-anchor="middle" fill="#202124" transform="rotate(45 427.7 446)">2010</text>
<rect x="445.8" y="428.0" width="32.2" height="0.0" fill="#188038"/>
<rect x="479.9" y="195.7" width="32.2" height="232.3" fill="#188038"/>
<rect x="514.1" y="428.0" width="32.2" height="0.0" fill="#188038"/>
<rect x="548.2" y="285.8" width="32.2" height="142.2" fill="#188038"/>
<rect x="582.4" y="428.0" width="32.2" height="0.0" fill="#188038"/>
<text x="598.5" y="446" font-family="Arial, sans-serif" font-size="10" text-anchor="middle" fill="#202124" transform="rotate(45 598.5 446)">2015</text>
<rect x="616.6" y="295.3" width="32.2" height="132.7" fill="#188038"/>
<rect x="650.7" y="428.0" width="32.2" height="0.0" fill="#188038"/>
<rect x="684.9" y="44.0" width="32.2" height="384.0" fill="#188038"/>
<rect x="719.0" y="428.0" width="32.2" height="0.0" fill="#188038"/>
<rect x="753.2" y="172.0" width="32.2" height="256.0" fill="#188038"/>
<text x="769.3" y="446" font-family="Arial, sans-serif" font-size="10" text-anchor="middle" fill="#202124" transform="rotate(45 769.3 446)">2020</text>
<rect x="787.4" y="157.8" width="32.2" height="270.2" fill="#188038"/>
<rect x="821.5" y="262.1" width="32.2" height="165.9" fill="#188038"/>
<rect x="855.7" y="428.0" width="32.2" height="0.0" fill="#188038"/>
<rect x="889.8" y="219.4" width="32.2" height="208.6" fill="#188038"/>
<text x="905.9" y="446" font-family="Arial, sans-serif" font-size="10" text-anchor="middle" fill="#202124" transform="rotate(45 905.9 446)">2024</text>
</svg>