<svg xmlns="http://www.w3.org/2000/svg" width="1216" height="520" viewBox="0 0 1216 520">
<rect width="100%" height="100%" fill="#ffffff"/>
<text x="20.0" y="26.0" font-family="Arial, sans-serif" font-size="18" text-anchor="start" fill="#202124">DIS year distribution</text>
<line x1="70" y1="428" x2="1188" y2="428" stroke="#5f6368"/>
<line x1="70" y1="44" x2="70" y2="428" stroke="#5f6368"/>
<line x1="70" y1="428.0" x2="1188" y2="428.0" stroke="#f1f3f4"/>
<text x="62.0" y="432.0" font-family="Arial, sans-serif" font-size="10" text-anchor="end" fill="#202124">0</text>
<line x1="70" y1="332.0" x2="1188" y2="332.0" stroke="#f1f3f4"/>
<text x="62.0" y="336.0" font-family="Arial, sans-serif" font-size="10" text-anchor="end" fill="#202124">89</text>
<line x1="70" y1="236.0" x2="1188" y2="236.0" stroke="#f1f3f4"/>
<text x="62.0" y="240.0" font-family="Arial, sans-serif" font-size="10" text-anchor="end" fill="#202124">179</text>
<line x1="70" y1="140.0" x2="1188" y2="140.0" stroke="#f1f3f4"/>
<text x="62.0" y="144.0" font-family="Arial, sans-serif" font-size="10" text-anchor="end" fill="#202124">268</text>
<line x1="70" y1="44.0" x2="1188" y2="44.0" stroke="#f1f3f4"/>
<text x="62.0" y="48.0" font-family="Arial, sans-serif" font-size="10" text-anchor="end" fill="#202124">358</text>
<rect x="70.0" y="396.9" width="33.0" height="31.1" fill="#188038"/>
<text x="86.5" y="446" font-family="Arial, sans-serif" font-size="10" text-anchor="middle" fill="#202124" transform="rotate(45 86.5 446)">1995</text>
<rect x="105.0" y="428.0" width="33.0" height="0.0" fill="#188038"/>
<rect x="140.0" y="375.4" width="33.0" height="52.6" fill="#188038"/>
<rect x="175.0" y="428.0" width="33.0" height="0.0" fill="#188038"/>
<rect x="210.0" y="428.0" width="33.0" height="0.0" fill="#188038"/>
<rect x="245.0" y="367.9" width="33.0" height="60.1" fill="#188038"/>
<text x="261.5" y="446" font-family="Arial, sans-serif" font-size="10" text-anchor="middle" fill="#202124" transform="rotate(45 261.5 446)">2000</text>
<rect x="280.0" y="428.0" width="33.0" height="0.0" fill="#188038"/>
<rect x="315.0" y="365.8" width="33.0" height="62.2" fill="#188038"/>
<rect x="350.0" y="428.0" width="33.0" height="0.0" fill="#188038"/>
<rect x="385.0" y="367.9" width="33.0" height="60.1" fill="#188038"/>
<rect x="420.0" y="428.0" width="33.0" height="0.0" fill="#188038"/>
<text x="436.5" y="446" font-family="Arial, sans-serif" font-size="10" text-anchor="middle" fill="#202124" transform="rotate(45 436.5 446)">2005</text>
<rect x="455.0" y="374.4" width="33.0" height="53.6" fill="#188038"/>
<rect x="490.0" y="428.0" width="33.0" height="0.0" fill="#188038"/>
<rect x="525.0" y="374.4" width="33.0" height="53.6" fill="#188038"/>
<rect x="560.0" y="428.0" width="33.0" height="0.0" fill="#188038"/>
<rect x="595.0" y="350.8" width="33.0" height="77.2" fill="#188038"/>
<text x="611.5" y="446" font-family="Arial, sans-serif" font-size="10" text-anchor="middle" fill="#202124" transform="rotate(45 611.5 446)">2010</text>
<rect x="630.0" y="428.0" width="33.0" height="0.0" fill="#188038"/>
<rect x="665.0" y="316.4" width="33.0" height="111.6" fill="#188038"/>
<rect x="700.0" y="428.0" width="33.0" height="0.0" fill="#188038"/>
<rect x="735.0" y="242.4" width="33.0" height="185.6" fill="#188038"/>
<rect x="770.0" y="428.0" width="33.0" height="0.0" fill="#188038"/>
<text x="786.5" y="446" font-family="Arial, sans-serif" font-size="10" text-anchor="middle" fill="#202124" transform="rotate(45 786.5 446)">2015</text>
<rect x="805.0" y="245.7" width="33.0" height="182.3" fill="#188038"/>
<rect x="840.0" y="201.7" width="33.0" height="226.3" fill="#188038"/>
<rect x="875.0" y="218.8" width="33.0" height="209.2" fill="#188038"/>
<rect x="910.0" y="210.3" width="33.0" height="217.7" fill="#188038"/>
<rect x="945.0" y="135.2" width="33.0" height="292.8" fill="#188038"/>
<text x="961.5" y="446" font-family="Arial, sans-serif" font-size="10" text-anchor="middle" fill="#202124" transform="rotate(45 961.5 446)">2020</text>
<rect x="980.0" y="251.0" width="33.0" height="177.0" fill="#188038"/>
<rect x="1015.0" y="272.5" width="33.0" height="155.5" fill="#188038"/>
<rect x="1050.0" y="151.3" width="33.0" height="276.7" fill="#188038"/>
<rect x="1085.0" y="55.8" width="33.0" height="372.2" fill="#188038"/>
<rect x="1120.0" y="44.0" width="33.0" height="384.0" fill="#188038"/>
<text x="1136.5" y="446" font-family="Arial, sans-serif" font-size="10" text-anchor="middle" fill="#202124" transform="rotate(45 1136.5 446)">2025</text>
<rect x="1155.0" y="120.2" width="33.0" height="307.8" fill="#188038"/>
<text x="1171.5" y="446" font-family="Arial, sans-serif" font-size="10" text-anchor="middle" fill="#202124" transform="rotate(45 1171.5 446)">2026</text>
</svg>