<svg xmlns="http://www.w3.org/2000/svg" width="1140" height="520" viewBox="0 0 1140 520">
<rect width="100%" height="100%" fill="#ffffff"/>
<text x="20.0" y="26.0" font-family="Arial, sans-serif" font-size="18" text-anchor="start" fill="#202124">Graphics Interface year distribution</text>
<line x1="70" y1="428" x2="1112" y2="428" stroke="#5f6368"/>
<line x1="70" y1="44" x2="70" y2="428" stroke="#5f6368"/>
<line x1="70" y1="428.0" x2="1112" y2="428.0" stroke="#f1f3f4"/>
<text x="62.0" y="432.0" font-family="Arial, sans-serif" font-size="10" text-anchor="end" fill="#202124">0</text>
<line x1="70" y1="332.0" x2="1112" y2="332.0" stroke="#f1f3f4"/>
<text x="62.0" y="336.0" font-family="Arial, sans-serif" font-size="10" text-anchor="end" fill="#202124">11</text>
<line x1="70" y1="236.0" x2="1112" y2="236.0" stroke="#f1f3f4"/>
<text x="62.0" y="240.0" font-family="Arial, sans-serif" font-size="10" text-anchor="end" fill="#202124">23</text>
<line x1="70" y1="140.0" x2="1112" y2="140.0" stroke="#f1f3f4"/>
<text x="62.0" y="144.0" font-family="Arial, sans-serif" font-size="10" text-anchor="end" fill="#202124">35</text>
<line x1="70" y1="44.0" x2="1112" y2="44.0" stroke="#f1f3f4"/>
<text x="62.0" y="48.0" font-family="Arial, sans-serif" font-size="10" text-anchor="end" fill="#202124">47</text>
<rect x="70.0" y="191.1" width="32.8" height="236.9" fill="#188038"/>
<text x="86.4" y="446" font-family="Arial, sans-serif" font-size="10" text-anchor="middle" fill="#202124" transform="rotate(45 86.4 446)">1996</text>
<rect x="104.8" y="248.3" width="32.8" height="179.7" fill="#188038"/>
<rect x="139.6" y="191.1" width="32.8" height="236.9" fill="#188038"/>
<rect x="174.4" y="207.4" width="32.8" height="220.6" fill="#188038"/>
<rect x="209.2" y="191.1" width="32.8" height="236.9" fill="#188038"/>
<rect x="244.0" y="207.4" width="32.8" height="220.6" fill="#188038"/>
<text x="260.4" y="446" font-family="Arial, sans-serif" font-size="10" text-anchor="middle" fill="#202124" transform="rotate(45 260.4 446)">2001</text>
<rect x="278.8" y="215.6" width="32.8" height="212.4" fill="#188038"/>
<rect x="313.6" y="166.6" width="32.8" height="261.4" fill="#188038"/>
<rect x="348.4" y="133.9" width="32.8" height="294.1" fill="#188038"/>
<rect x="383.2" y="174.7" width="32.8" height="253.3" fill="#188038"/>
<rect x="418.0" y="174.7" width="32.8" height="253.3" fill="#188038"/>
<text x="434.4" y="446" font-family="Arial, sans-serif" font-size="10" text-anchor="middle" fill="#202124" transform="rotate(45 434.4 446)">2006</text>
<rect x="452.8" y="68.5" width="32.8" height="359.5" fill="#188038"/>
<rect x="487.6" y="142.0" width="32.8" height="286.0" fill="#188038"/>
<rect x="522.4" y="117.5" width="32.8" height="310.5" fill="#188038"/>
<rect x="557.2" y="133.9" width="32.8" height="294.1" fill="#188038"/>
<rect x="592.0" y="191.1" width="32.8" height="236.9" fill="#188038"/>
<text x="608.4" y="446" font-family="Arial, sans-serif" font-size="10" text-anchor="middle" fill="#202124" transform="rotate(45 608.4 446)">2011</text>
<rect x="626.8" y="215.6" width="32.8" height="212.4" fill="#188038"/>
<rect x="661.6" y="191.1" width="32.8" height="236.9" fill="#188038"/>
<rect x="696.4" y="191.1" width="32.8" height="236.9" fill="#188038"/>
<rect x="731.2" y="133.9" width="32.8" height="294.1" fill="#188038"/>
<rect x="766.0" y="207.4" width="32.8" height="220.6" fill="#188038"/>
<text x="782.4" y="446" font-family="Arial, sans-serif" font-size="10" text-anchor="middle" fill="#202124" transform="rotate(45 782.4 446)">2016</text>
<rect x="800.8" y="207.4" width="32.8" height="220.6" fill="#188038"/>
<rect x="835.6" y="166.6" width="32.8" height="261.4" fill="#188038"/>
<rect x="870.4" y="199.2" width="32.8" height="228.8" fill="#188038"/>
<rect x="905.2" y="44.0" width="32.8" height="384.0" fill="#188038"/>
<rect x="940.0" y="133.9" width="32.8" height="294.1" fill="#188038"/>
<text x="956.4" y="446" font-family="Arial, sans-serif" font-size="10" text-anchor="middle" fill="#202124" transform="rotate(45 956.4 446)">2021</text>
<rect x="974.8" y="207.4" width="32.8" height="220.6" fill="#188038"/>
<rect x="1009.6" y="428.0" width="32.8" height="0.0" fill="#188038"/>
<rect x="1044.4" y="125.7" width="32.8" height="302.3" fill="#188038"/>
<rect x="1079.2" y="166.6" width="32.8" height="261.4" fill="#188038"/>
<text x="1095.6" y="446" font-family="Arial, sans-serif" font-size="10" text-anchor="middle" fill="#202124" transform="rotate(45 1095.6 446)">2025</text>
</svg>