<svg xmlns="http://www.w3.org/2000/svg" width="950" height="520" viewBox="0 0 950 520">
<rect width="100%" height="100%" fill="#ffffff"/>
<text x="20.0" y="26.0" font-family="Arial, sans-serif" font-size="18" text-anchor="start" fill="#202124">ICDM year distribution</text>
<line x1="70" y1="428" x2="922" y2="428" stroke="#5f6368"/>
<line x1="70" y1="44" x2="70" y2="428" stroke="#5f6368"/>
<line x1="70" y1="428.0" x2="922" y2="428.0" stroke="#f1f3f4"/>
<text x="62.0" y="432.0" font-family="Arial, sans-serif" font-size="10" text-anchor="end" fill="#202124">0</text>
<line x1="70" y1="332.0" x2="922" y2="332.0" stroke="#f1f3f4"/>
<text x="62.0" y="336.0" font-family="Arial, sans-serif" font-size="10" text-anchor="end" fill="#202124">55</text>
<line x1="70" y1="236.0" x2="922" y2="236.0" stroke="#f1f3f4"/>
<text x="62.0" y="240.0" font-family="Arial, sans-serif" font-size="10" text-anchor="end" fill="#202124">111</text>
<line x1="70" y1="140.0" x2="922" y2="140.0" stroke="#f1f3f4"/>
<text x="62.0" y="144.0" font-family="Arial, sans-serif" font-size="10" text-anchor="end" fill="#202124">166</text>
<line x1="70" y1="44.0" x2="922" y2="44.0" stroke="#f1f3f4"/>
<text x="62.0" y="48.0" font-family="Arial, sans-serif" font-size="10" text-anchor="end" fill="#202124">222</text>
<rect x="70.0" y="234.3" width="32.2" height="193.7" fill="#188038"/>
<text x="86.1" y="446" font-family="Arial, sans-serif" font-size="10" text-anchor="middle" fill="#202124" transform="rotate(45 86.1 446)">2001</text>
<rect x="104.2" y="208.3" width="32.2" height="219.7" fill="#188038"/>
<rect x="138.3" y="208.3" width="32.2" height="219.7" fill="#188038"/>
<rect x="172.5" y="215.2" width="32.2" height="212.8" fill="#188038"/>
<rect x="206.6" y="168.5" width="32.2" height="259.5" fill="#188038"/>
<rect x="240.8" y="83.8" width="32.2" height="344.2" fill="#188038"/>
<text x="256.9" y="446" font-family="Arial, sans-serif" font-size="10" text-anchor="middle" fill="#202124" transform="rotate(45 256.9 446)">2006</text>
<rect x="275.0" y="206.6" width="32.2" height="221.4" fill="#188038"/>
<rect x="309.1" y="123.6" width="32.2" height="304.4" fill="#188038"/>
<rect x="343.3" y="133.9" width="32.2" height="294.1" fill="#188038"/>
<rect x="377.4" y="61.3" width="32.2" height="366.7" fill="#188038"/>
<rect x="411.6" y="130.5" width="32.2" height="297.5" fill="#188038"/>
<text x="427.7" y="446" font-family="Arial, sans-serif" font-size="10" text-anchor="middle" fill="#202124" transform="rotate(45 427.7 446)">2011</text>
<rect x="445.8" y="128.8" width="32.2" height="299.2" fill="#188038"/>
<rect x="479.9" y="116.6" width="32.2" height="311.4" fill="#188038"/>
<rect x="514.1" y="153.0" width="32.2" height="275.0" fill="#188038"/>
<rect x="548.2" y="142.6" width="32.2" height="285.4" fill="#188038"/>
<rect x="582.4" y="63.0" width="32.2" height="365.0" fill="#188038"/>
<text x="598.5" y="446" font-family="Arial, sans-serif" font-size="10" text-anchor="middle" fill="#202124" transform="rotate(45 598.5 446)">2016</text>
<rect x="616.6" y="113.2" width="32.2" height="314.8" fill="#188038"/>
<rect x="650.7" y="47.5" width="32.2" height="380.5" fill="#188038"/>
<rect x="684.9" y="44.0" width="32.2" height="384.0" fill="#188038"/>
<rect x="719.0" y="99.4" width="32.2" height="328.6" fill="#188038"/>
<rect x="753.2" y="87.2" width="32.2" height="340.8" fill="#188038"/>
<text x="769.3" y="446" font-family="Arial, sans-serif" font-size="10" text-anchor="middle" fill="#202124" transform="rotate(45 769.3 446)">2021</text>
<rect x="787.4" y="132.2" width="32.2" height="295.8" fill="#188038"/>
<rect x="821.5" y="76.9" width="32.2" height="351.1" fill="#188038"/>
<rect x="855.7" y="227.4" width="32.2" height="200.6" fill="#188038"/>
<rect x="889.8" y="116.6" width="32.2" height="311.4" fill="#188038"/>
<text x="905.9" y="446" font-family="Arial, sans-serif" font-size="10" text-anchor="middle" fill="#202124" transform="rotate(45 905.9 446)">2025</text>
</svg>