<svg xmlns="http://www.w3.org/2000/svg" width="900" height="520" viewBox="0 0 900 520">
<rect width="100%" height="100%" fill="#ffffff"/>
<text x="20.0" y="26.0" font-family="Arial, sans-serif" font-size="18" text-anchor="start" fill="#202124">InfoVis year distribution</text>
<line x1="70" y1="428" x2="872" y2="428" stroke="#5f6368"/>
<line x1="70" y1="44" x2="70" y2="428" stroke="#5f6368"/>
<line x1="70" y1="428.0" x2="872" y2="428.0" stroke="#f1f3f4"/>
<text x="62.0" y="432.0" font-family="Arial, sans-serif" font-size="10" text-anchor="end" fill="#202124">0</text>
<line x1="70" y1="332.0" x2="872" y2="332.0" stroke="#f1f3f4"/>
<text x="62.0" y="336.0" font-family="Arial, sans-serif" font-size="10" text-anchor="end" fill="#202124">15</text>
<line x1="70" y1="236.0" x2="872" y2="236.0" stroke="#f1f3f4"/>
<text x="62.0" y="240.0" font-family="Arial, sans-serif" font-size="10" text-anchor="end" fill="#202124">31</text>
<line x1="70" y1="140.0" x2="872" y2="140.0" stroke="#f1f3f4"/>
<text x="62.0" y="144.0" font-family="Arial, sans-serif" font-size="10" text-anchor="end" fill="#202124">47</text>
<line x1="70" y1="44.0" x2="872" y2="44.0" stroke="#f1f3f4"/>
<text x="62.0" y="48.0" font-family="Arial, sans-serif" font-size="10" text-anchor="end" fill="#202124">63</text>
<rect x="70.0" y="312.2" width="71.1" height="115.8" fill="#188038"/>
<text x="105.5" y="446" font-family="Arial, sans-serif" font-size="10" text-anchor="middle" fill="#202124" transform="rotate(45 105.5 446)">1995</text>
<rect x="143.1" y="312.2" width="71.1" height="115.8" fill="#188038"/>
<rect x="216.2" y="330.5" width="71.1" height="97.5" fill="#188038"/>
<rect x="289.3" y="318.3" width="71.1" height="109.7" fill="#188038"/>
<rect x="362.4" y="312.2" width="71.1" height="115.8" fill="#188038"/>
<rect x="435.5" y="300.0" width="71.1" height="128.0" fill="#188038"/>
<text x="471.0" y="446" font-family="Arial, sans-serif" font-size="10" text-anchor="middle" fill="#202124" transform="rotate(45 471.0 446)">2000</text>
<rect x="508.5" y="281.7" width="71.1" height="146.3" fill="#188038"/>
<rect x="581.6" y="275.6" width="71.1" height="152.4" fill="#188038"/>
<rect x="654.7" y="233.0" width="71.1" height="195.0" fill="#188038"/>
<rect x="727.8" y="44.0" width="71.1" height="384.0" fill="#188038"/>
<rect x="800.9" y="239.0" width="71.1" height="189.0" fill="#188038"/>
<text x="836.5" y="446" font-family="Arial, sans-serif" font-size="10" text-anchor="middle" fill="#202124" transform="rotate(45 836.5 446)">2005</text>
</svg>