<svg xmlns="http://www.w3.org/2000/svg" width="1102" height="520" viewBox="0 0 1102 520">
<rect width="100%" height="100%" fill="#ffffff"/>
<text x="20.0" y="26.0" font-family="Arial, sans-serif" font-size="18" text-anchor="start" fill="#202124">Intelligent Vehicles year distribution</text>
<line x1="70" y1="428" x2="1074" y2="428" stroke="#5f6368"/>
<line x1="70" y1="44" x2="70" y2="428" stroke="#5f6368"/>
<line x1="70" y1="428.0" x2="1074" y2="428.0" stroke="#f1f3f4"/>
<text x="62.0" y="432.0" font-family="Arial, sans-serif" font-size="10" text-anchor="end" fill="#202124">0</text>
<line x1="70" y1="332.0" x2="1074" y2="332.0" stroke="#f1f3f4"/>
<text x="62.0" y="336.0" font-family="Arial, sans-serif" font-size="10" text-anchor="end" fill="#202124">140</text>
<line x1="70" y1="236.0" x2="1074" y2="236.0" stroke="#f1f3f4"/>
<text x="62.0" y="240.0" font-family="Arial, sans-serif" font-size="10" text-anchor="end" fill="#202124">280</text>
<line x1="70" y1="140.0" x2="1074" y2="140.0" stroke="#f1f3f4"/>
<text x="62.0" y="144.0" font-family="Arial, sans-serif" font-size="10" text-anchor="end" fill="#202124">420</text>
<line x1="70" y1="44.0" x2="1074" y2="44.0" stroke="#f1f3f4"/>
<text x="62.0" y="48.0" font-family="Arial, sans-serif" font-size="10" text-anchor="end" fill="#202124">561</text>
<rect x="70.0" y="393.8" width="32.7" height="34.2" fill="#188038"/>
<text x="86.3" y="446" font-family="Arial, sans-serif" font-size="10" text-anchor="middle" fill="#202124" transform="rotate(45 86.3 446)">1997</text>
<rect x="104.7" y="391.7" width="32.7" height="36.3" fill="#188038"/>
<rect x="139.4" y="366.4" width="32.7" height="61.6" fill="#188038"/>
<rect x="174.1" y="365.7" width="32.7" height="62.3" fill="#188038"/>
<rect x="208.8" y="352.0" width="32.7" height="76.0" fill="#188038"/>
<rect x="243.4" y="350.0" width="32.7" height="78.0" fill="#188038"/>
<text x="259.8" y="446" font-family="Arial, sans-serif" font-size="10" text-anchor="middle" fill="#202124" transform="rotate(45 259.8 446)">2002</text>
<rect x="278.1" y="358.9" width="32.7" height="69.1" fill="#188038"/>
<rect x="312.8" y="324.6" width="32.7" height="103.4" fill="#188038"/>
<rect x="347.5" y="326.0" width="32.7" height="102.0" fill="#188038"/>
<rect x="382.2" y="341.8" width="32.7" height="86.2" fill="#188038"/>
<rect x="416.9" y="332.9" width="32.7" height="95.1" fill="#188038"/>
<text x="433.2" y="446" font-family="Arial, sans-serif" font-size="10" text-anchor="middle" fill="#202124" transform="rotate(45 433.2 446)">2007</text>
<rect x="451.6" y="360.2" width="32.7" height="67.8" fill="#188038"/>
<rect x="486.3" y="358.9" width="32.7" height="69.1" fill="#188038"/>
<rect x="521.0" y="363.0" width="32.7" height="65.0" fill="#188038"/>
<rect x="555.7" y="359.6" width="32.7" height="68.4" fill="#188038"/>
<rect x="590.3" y="354.8" width="32.7" height="73.2" fill="#188038"/>
<text x="606.7" y="446" font-family="Arial, sans-serif" font-size="10" text-anchor="middle" fill="#202124" transform="rotate(45 606.7 446)">2012</text>
<rect x="625.0" y="367.1" width="32.7" height="60.9" fill="#188038"/>
<rect x="659.7" y="379.4" width="32.7" height="48.6" fill="#188038"/>
<rect x="694.4" y="366.4" width="32.7" height="61.6" fill="#188038"/>
<rect x="729.1" y="380.1" width="32.7" height="47.9" fill="#188038"/>
<rect x="763.8" y="378.7" width="32.7" height="49.3" fill="#188038"/>
<text x="780.1" y="446" font-family="Arial, sans-serif" font-size="10" text-anchor="middle" fill="#202124" transform="rotate(45 780.1 446)">2017</text>
<rect x="798.5" y="361.6" width="32.7" height="66.4" fill="#188038"/>
<rect x="833.2" y="122.0" width="32.7" height="306.0" fill="#188038"/>
<rect x="867.9" y="125.5" width="32.7" height="302.5" fill="#188038"/>
<rect x="902.6" y="243.2" width="32.7" height="184.8" fill="#188038"/>
<rect x="937.2" y="200.7" width="32.7" height="227.3" fill="#188038"/>
<text x="953.6" y="446" font-family="Arial, sans-serif" font-size="10" text-anchor="middle" fill="#202124" transform="rotate(45 953.6 446)">2022</text>
<rect x="971.9" y="198.0" width="32.7" height="230.0" fill="#188038"/>
<rect x="1006.6" y="44.0" width="32.7" height="384.0" fill="#188038"/>
<rect x="1041.3" y="128.9" width="32.7" height="299.1" fill="#188038"/>
<text x="1057.7" y="446" font-family="Arial, sans-serif" font-size="10" text-anchor="middle" fill="#202124" transform="rotate(45 1057.7 446)">2025</text>
</svg>