<svg xmlns="http://www.w3.org/2000/svg" width="1368" height="520" viewBox="0 0 1368 520">
<rect width="100%" height="100%" fill="#ffffff"/>
<text x="20.0" y="26.0" font-family="Arial, sans-serif" font-size="18" text-anchor="start" fill="#202124">Interact year distribution</text>
<line x1="70" y1="428" x2="1340" y2="428" stroke="#5f6368"/>
<line x1="70" y1="44" x2="70" y2="428" stroke="#5f6368"/>
<line x1="70" y1="428.0" x2="1340" y2="428.0" stroke="#f1f3f4"/>
<text x="62.0" y="432.0" font-family="Arial, sans-serif" font-size="10" text-anchor="end" fill="#202124">0</text>
<line x1="70" y1="332.0" x2="1340" y2="332.0" stroke="#f1f3f4"/>
<text x="62.0" y="336.0" font-family="Arial, sans-serif" font-size="10" text-anchor="end" fill="#202124">72</text>
<line x1="70" y1="236.0" x2="1340" y2="236.0" stroke="#f1f3f4"/>
<text x="62.0" y="240.0" font-family="Arial, sans-serif" font-size="10" text-anchor="end" fill="#202124">145</text>
<line x1="70" y1="140.0" x2="1340" y2="140.0" stroke="#f1f3f4"/>
<text x="62.0" y="144.0" font-family="Arial, sans-serif" font-size="10" text-anchor="end" fill="#202124">217</text>
<line x1="70" y1="44.0" x2="1340" y2="44.0" stroke="#f1f3f4"/>
<text x="62.0" y="48.0" font-family="Arial, sans-serif" font-size="10" text-anchor="end" fill="#202124">290</text>
<rect x="70.0" y="200.2" width="33.3" height="227.8" fill="#188038"/>
<text x="86.7" y="446" font-family="Arial, sans-serif" font-size="10" text-anchor="middle" fill="#202124" transform="rotate(45 86.7 446)">1990</text>
<rect x="105.3" y="428.0" width="33.3" height="0.0" fill="#188038"/>
<rect x="140.7" y="428.0" width="33.3" height="0.0" fill="#188038"/>
<rect x="176.0" y="428.0" width="33.3" height="0.0" fill="#188038"/>
<rect x="211.3" y="428.0" width="33.3" height="0.0" fill="#188038"/>
<rect x="246.7" y="328.7" width="33.3" height="99.3" fill="#188038"/>
<text x="263.3" y="446" font-family="Arial, sans-serif" font-size="10" text-anchor="middle" fill="#202124" transform="rotate(45 263.3 446)">1995</text>
<rect x="282.0" y="428.0" width="33.3" height="0.0" fill="#188038"/>
<rect x="317.3" y="242.6" width="33.3" height="185.4" fill="#188038"/>
<rect x="352.7" y="428.0" width="33.3" height="0.0" fill="#188038"/>
<rect x="388.0" y="300.9" width="33.3" height="127.1" fill="#188038"/>
<rect x="423.3" y="428.0" width="33.3" height="0.0" fill="#188038"/>
<text x="440.0" y="446" font-family="Arial, sans-serif" font-size="10" text-anchor="middle" fill="#202124" transform="rotate(45 440.0 446)">2000</text>
<rect x="458.7" y="183.0" width="33.3" height="245.0" fill="#188038"/>
<rect x="494.0" y="428.0" width="33.3" height="0.0" fill="#188038"/>
<rect x="529.3" y="143.3" width="33.3" height="284.7" fill="#188038"/>
<rect x="564.7" y="428.0" width="33.3" height="0.0" fill="#188038"/>
<rect x="600.0" y="261.2" width="33.3" height="166.8" fill="#188038"/>
<text x="616.7" y="446" font-family="Arial, sans-serif" font-size="10" text-anchor="middle" fill="#202124" transform="rotate(45 616.7 446)">2005</text>
<rect x="635.3" y="428.0" width="33.3" height="0.0" fill="#188038"/>
<rect x="670.7" y="212.2" width="33.3" height="215.8" fill="#188038"/>
<rect x="706.0" y="428.0" width="33.3" height="0.0" fill="#188038"/>
<rect x="741.3" y="108.9" width="33.3" height="319.1" fill="#188038"/>
<rect x="776.7" y="428.0" width="33.3" height="0.0" fill="#188038"/>
<text x="793.3" y="446" font-family="Arial, sans-serif" font-size="10" text-anchor="middle" fill="#202124" transform="rotate(45 793.3 446)">2010</text>
<rect x="812.0" y="44.0" width="33.3" height="384.0" fill="#188038"/>
<rect x="847.3" y="428.0" width="33.3" height="0.0" fill="#188038"/>
<rect x="882.7" y="115.5" width="33.3" height="312.5" fill="#188038"/>
<rect x="918.0" y="428.0" width="33.3" height="0.0" fill="#188038"/>
<rect x="953.3" y="124.8" width="33.3" height="303.2" fill="#188038"/>
<text x="970.0" y="446" font-family="Arial, sans-serif" font-size="10" text-anchor="middle" fill="#202124" transform="rotate(45 970.0 446)">2015</text>
<rect x="988.7" y="428.0" width="33.3" height="0.0" fill="#188038"/>
<rect x="1024.0" y="214.8" width="33.3" height="213.2" fill="#188038"/>
<rect x="1059.3" y="428.0" width="33.3" height="0.0" fill="#188038"/>
<rect x="1094.7" y="146.0" width="33.3" height="282.0" fill="#188038"/>
<rect x="1130.0" y="428.0" width="33.3" height="0.0" fill="#188038"/>
<text x="1146.7" y="446" font-family="Arial, sans-serif" font-size="10" text-anchor="middle" fill="#202124" transform="rotate(45 1146.7 446)">2020</text>
<rect x="1165.3" y="100.9" width="33.3" height="327.1" fill="#188038"/>
<rect x="1200.7" y="428.0" width="33.3" height="0.0" fill="#188038"/>
<rect x="1236.0" y="155.2" width="33.3" height="272.8" fill="#188038"/>
<rect x="1271.3" y="428.0" width="33.3" height="0.0" fill="#188038"/>
<rect x="1306.7" y="191.0" width="33.3" height="237.0" fill="#188038"/>
<text x="1323.3" y="446" font-family="Arial, sans-serif" font-size="10" text-anchor="middle" fill="#202124" transform="rotate(45 1323.3 446)">2025</text>
</svg>