<svg xmlns="http://www.w3.org/2000/svg" width="1292" height="520" viewBox="0 0 1292 520">
<rect width="100%" height="100%" fill="#ffffff"/>
<text x="20.0" y="26.0" font-family="Arial, sans-serif" font-size="18" text-anchor="start" fill="#202124">IUI year distribution</text>
<line x1="70" y1="428" x2="1264" y2="428" stroke="#5f6368"/>
<line x1="70" y1="44" x2="70" y2="428" stroke="#5f6368"/>
<line x1="70" y1="428.0" x2="1264" y2="428.0" stroke="#f1f3f4"/>
<text x="62.0" y="432.0" font-family="Arial, sans-serif" font-size="10" text-anchor="end" fill="#202124">0</text>
<line x1="70" y1="332.0" x2="1264" y2="332.0" stroke="#f1f3f4"/>
<text x="62.0" y="336.0" font-family="Arial, sans-serif" font-size="10" text-anchor="end" fill="#202124">46</text>
<line x1="70" y1="236.0" x2="1264" y2="236.0" stroke="#f1f3f4"/>
<text x="62.0" y="240.0" font-family="Arial, sans-serif" font-size="10" text-anchor="end" fill="#202124">93</text>
<line x1="70" y1="140.0" x2="1264" y2="140.0" stroke="#f1f3f4"/>
<text x="62.0" y="144.0" font-family="Arial, sans-serif" font-size="10" text-anchor="end" fill="#202124">140</text>
<line x1="70" y1="44.0" x2="1264" y2="44.0" stroke="#f1f3f4"/>
<text x="62.0" y="48.0" font-family="Arial, sans-serif" font-size="10" text-anchor="end" fill="#202124">187</text>
<rect x="70.0" y="347.9" width="33.2" height="80.1" fill="#188038"/>
<text x="86.6" y="446" font-family="Arial, sans-serif" font-size="10" text-anchor="middle" fill="#202124" transform="rotate(45 86.6 446)">1993</text>
<rect x="105.2" y="428.0" width="33.2" height="0.0" fill="#188038"/>
<rect x="140.4" y="428.0" width="33.2" height="0.0" fill="#188038"/>
<rect x="175.5" y="428.0" width="33.2" height="0.0" fill="#188038"/>
<rect x="210.7" y="343.8" width="33.2" height="84.2" fill="#188038"/>
<rect x="245.9" y="372.6" width="33.2" height="55.4" fill="#188038"/>
<text x="262.5" y="446" font-family="Arial, sans-serif" font-size="10" text-anchor="middle" fill="#202124" transform="rotate(45 262.5 446)">1998</text>
<rect x="281.1" y="331.5" width="33.2" height="96.5" fill="#188038"/>
<rect x="316.2" y="329.4" width="33.2" height="98.6" fill="#188038"/>
<rect x="351.4" y="372.6" width="33.2" height="55.4" fill="#188038"/>
<rect x="386.6" y="302.7" width="33.2" height="125.3" fill="#188038"/>
<rect x="421.8" y="274.0" width="33.2" height="154.0" fill="#188038"/>
<text x="438.4" y="446" font-family="Arial, sans-serif" font-size="10" text-anchor="middle" fill="#202124" transform="rotate(45 438.4 446)">2003</text>
<rect x="456.9" y="249.3" width="33.2" height="178.7" fill="#188038"/>
<rect x="492.1" y="288.4" width="33.2" height="139.6" fill="#188038"/>
<rect x="527.3" y="267.8" width="33.2" height="160.2" fill="#188038"/>
<rect x="562.5" y="302.7" width="33.2" height="125.3" fill="#188038"/>
<rect x="597.6" y="267.8" width="33.2" height="160.2" fill="#188038"/>
<text x="614.2" y="446" font-family="Arial, sans-serif" font-size="10" text-anchor="middle" fill="#202124" transform="rotate(45 614.2 446)">2008</text>
<rect x="632.8" y="276.0" width="33.2" height="152.0" fill="#188038"/>
<rect x="668.0" y="261.7" width="33.2" height="166.3" fill="#188038"/>
<rect x="703.2" y="235.0" width="33.2" height="193.0" fill="#188038"/>
<rect x="738.4" y="255.5" width="33.2" height="172.5" fill="#188038"/>
<rect x="773.5" y="232.9" width="33.2" height="195.1" fill="#188038"/>
<text x="790.1" y="446" font-family="Arial, sans-serif" font-size="10" text-anchor="middle" fill="#202124" transform="rotate(45 790.1 446)">2013</text>
<rect x="808.7" y="282.2" width="33.2" height="145.8" fill="#188038"/>
<rect x="843.9" y="237.0" width="33.2" height="191.0" fill="#188038"/>
<rect x="879.1" y="249.3" width="33.2" height="178.7" fill="#188038"/>
<rect x="914.2" y="175.4" width="33.2" height="252.6" fill="#188038"/>
<rect x="949.4" y="132.3" width="33.2" height="295.7" fill="#188038"/>
<text x="966.0" y="446" font-family="Arial, sans-serif" font-size="10" text-anchor="middle" fill="#202124" transform="rotate(45 966.0 446)">2018</text>
<rect x="984.6" y="105.6" width="33.2" height="322.4" fill="#188038"/>
<rect x="1019.8" y="159.0" width="33.2" height="269.0" fill="#188038"/>
<rect x="1054.9" y="214.4" width="33.2" height="213.6" fill="#188038"/>
<rect x="1090.1" y="218.5" width="33.2" height="209.5" fill="#188038"/>
<rect x="1125.3" y="146.7" width="33.2" height="281.3" fill="#188038"/>
<text x="1141.9" y="446" font-family="Arial, sans-serif" font-size="10" text-anchor="middle" fill="#202124" transform="rotate(45 1141.9 446)">2023</text>
<rect x="1160.5" y="218.5" width="33.2" height="209.5" fill="#188038"/>
<rect x="1195.6" y="109.7" width="33.2" height="318.3" fill="#188038"/>
<rect x="1230.8" y="44.0" width="33.2" height="384.0" fill="#188038"/>
<text x="1247.4" y="446" font-family="Arial, sans-serif" font-size="10" text-anchor="middle" fill="#202124" transform="rotate(45 1247.4 446)">2026</text>
</svg>