<svg xmlns="http://www.w3.org/2000/svg" width="912" height="520" viewBox="0 0 912 520">
<rect width="100%" height="100%" fill="#ffffff"/>
<text x="20.0" y="26.0" font-family="Arial, sans-serif" font-size="18" text-anchor="start" fill="#202124">Journal of Vis. year distribution</text>
<line x1="70" y1="428" x2="884" y2="428" stroke="#5f6368"/>
<line x1="70" y1="44" x2="70" y2="428" stroke="#5f6368"/>
<line x1="70" y1="428.0" x2="884" y2="428.0" stroke="#f1f3f4"/>
<text x="62.0" y="432.0" font-family="Arial, sans-serif" font-size="10" text-anchor="end" fill="#202124">0</text>
<line x1="70" y1="332.0" x2="884" y2="332.0" stroke="#f1f3f4"/>
<text x="62.0" y="336.0" font-family="Arial, sans-serif" font-size="10" text-anchor="end" fill="#202124">22</text>
<line x1="70" y1="236.0" x2="884" y2="236.0" stroke="#f1f3f4"/>
<text x="62.0" y="240.0" font-family="Arial, sans-serif" font-size="10" text-anchor="end" fill="#202124">44</text>
<line x1="70" y1="140.0" x2="884" y2="140.0" stroke="#f1f3f4"/>
<text x="62.0" y="144.0" font-family="Arial, sans-serif" font-size="10" text-anchor="end" fill="#202124">66</text>
<line x1="70" y1="44.0" x2="884" y2="44.0" stroke="#f1f3f4"/>
<text x="62.0" y="48.0" font-family="Arial, sans-serif" font-size="10" text-anchor="end" fill="#202124">88</text>
<rect x="70.0" y="126.9" width="32.0" height="301.1" fill="#188038"/>
<text x="86.0" y="446" font-family="Arial, sans-serif" font-size="10" text-anchor="middle" fill="#202124" transform="rotate(45 86.0 446)">2003</text>
<rect x="104.0" y="135.6" width="32.0" height="292.4" fill="#188038"/>
<rect x="138.0" y="135.6" width="32.0" height="292.4" fill="#188038"/>
<rect x="172.0" y="92.0" width="32.0" height="336.0" fill="#188038"/>
<rect x="206.0" y="57.1" width="32.0" height="370.9" fill="#188038"/>
<rect x="240.0" y="126.9" width="32.0" height="301.1" fill="#188038"/>
<text x="256.0" y="446" font-family="Arial, sans-serif" font-size="10" text-anchor="middle" fill="#202124" transform="rotate(45 256.0 446)">2008</text>
<rect x="274.0" y="179.3" width="32.0" height="248.7" fill="#188038"/>
<rect x="308.0" y="188.0" width="32.0" height="240.0" fill="#188038"/>
<rect x="342.0" y="218.5" width="32.0" height="209.5" fill="#188038"/>
<rect x="376.0" y="257.8" width="32.0" height="170.2" fill="#188038"/>
<rect x="410.0" y="244.7" width="32.0" height="183.3" fill="#188038"/>
<text x="426.0" y="446" font-family="Arial, sans-serif" font-size="10" text-anchor="middle" fill="#202124" transform="rotate(45 426.0 446)">2013</text>
<rect x="444.0" y="270.9" width="32.0" height="157.1" fill="#188038"/>
<rect x="478.0" y="131.3" width="32.0" height="296.7" fill="#188038"/>
<rect x="512.0" y="118.2" width="32.0" height="309.8" fill="#188038"/>
<rect x="546.0" y="109.5" width="32.0" height="318.5" fill="#188038"/>
<rect x="580.0" y="87.6" width="32.0" height="340.4" fill="#188038"/>
<text x="596.0" y="446" font-family="Arial, sans-serif" font-size="10" text-anchor="middle" fill="#202124" transform="rotate(45 596.0 446)">2018</text>
<rect x="614.0" y="44.0" width="32.0" height="384.0" fill="#188038"/>
<rect x="648.0" y="61.5" width="32.0" height="366.5" fill="#188038"/>
<rect x="682.0" y="48.4" width="32.0" height="379.6" fill="#188038"/>
<rect x="716.0" y="61.5" width="32.0" height="366.5" fill="#188038"/>
<rect x="750.0" y="57.1" width="32.0" height="370.9" fill="#188038"/>
<text x="766.0" y="446" font-family="Arial, sans-serif" font-size="10" text-anchor="middle" fill="#202124" transform="rotate(45 766.0 446)">2023</text>
<rect x="784.0" y="113.8" width="32.0" height="314.2" fill="#188038"/>
<rect x="818.0" y="122.5" width="32.0" height="305.5" fill="#188038"/>
<rect x="852.0" y="275.3" width="32.0" height="152.7" fill="#188038"/>
<text x="868.0" y="446" font-family="Arial, sans-serif" font-size="10" text-anchor="middle" fill="#202124" transform="rotate(45 868.0 446)">2026</text>
</svg>