<svg xmlns="http://www.w3.org/2000/svg" width="1216" height="520" viewBox="0 0 1216 520">
<rect width="100%" height="100%" fill="#ffffff"/>
<text x="20.0" y="26.0" font-family="Arial, sans-serif" font-size="18" text-anchor="start" fill="#202124">KDD year distribution</text>
<line x1="70" y1="428" x2="1188" y2="428" stroke="#5f6368"/>
<line x1="70" y1="44" x2="70" y2="428" stroke="#5f6368"/>
<line x1="70" y1="428.0" x2="1188" y2="428.0" stroke="#f1f3f4"/>
<text x="62.0" y="432.0" font-family="Arial, sans-serif" font-size="10" text-anchor="end" fill="#202124">0</text>
<line x1="70" y1="332.0" x2="1188" y2="332.0" stroke="#f1f3f4"/>
<text x="62.0" y="336.0" font-family="Arial, sans-serif" font-size="10" text-anchor="end" fill="#202124">211</text>
<line x1="70" y1="236.0" x2="1188" y2="236.0" stroke="#f1f3f4"/>
<text x="62.0" y="240.0" font-family="Arial, sans-serif" font-size="10" text-anchor="end" fill="#202124">422</text>
<line x1="70" y1="140.0" x2="1188" y2="140.0" stroke="#f1f3f4"/>
<text x="62.0" y="144.0" font-family="Arial, sans-serif" font-size="10" text-anchor="end" fill="#202124">633</text>
<line x1="70" y1="44.0" x2="1188" y2="44.0" stroke="#f1f3f4"/>
<text x="62.0" y="48.0" font-family="Arial, sans-serif" font-size="10" text-anchor="end" fill="#202124">844</text>
<rect x="70.0" y="402.5" width="33.0" height="25.5" fill="#188038"/>
<text x="86.5" y="446" font-family="Arial, sans-serif" font-size="10" text-anchor="middle" fill="#202124" transform="rotate(45 86.5 446)">1995</text>
<rect x="105.0" y="394.3" width="33.0" height="33.7" fill="#188038"/>
<rect x="140.0" y="398.4" width="33.0" height="29.6" fill="#188038"/>
<rect x="175.0" y="397.1" width="33.0" height="30.9" fill="#188038"/>
<rect x="210.0" y="398.9" width="33.0" height="29.1" fill="#188038"/>
<rect x="245.0" y="392.1" width="33.0" height="35.9" fill="#188038"/>
<text x="261.5" y="446" font-family="Arial, sans-serif" font-size="10" text-anchor="middle" fill="#202124" transform="rotate(45 261.5 446)">2000</text>
<rect x="280.0" y="395.2" width="33.0" height="32.8" fill="#188038"/>
<rect x="315.0" y="388.0" width="33.0" height="40.0" fill="#188038"/>
<rect x="350.0" y="384.3" width="33.0" height="43.7" fill="#188038"/>
<rect x="385.0" y="377.0" width="33.0" height="51.0" fill="#188038"/>
<rect x="420.0" y="380.7" width="33.0" height="47.3" fill="#188038"/>
<text x="436.5" y="446" font-family="Arial, sans-serif" font-size="10" text-anchor="middle" fill="#202124" transform="rotate(45 436.5 446)">2005</text>
<rect x="455.0" y="370.7" width="33.0" height="57.3" fill="#188038"/>
<rect x="490.0" y="376.1" width="33.0" height="51.9" fill="#188038"/>
<rect x="525.0" y="367.0" width="33.0" height="61.0" fill="#188038"/>
<rect x="560.0" y="362.0" width="33.0" height="66.0" fill="#188038"/>
<rect x="595.0" y="371.1" width="33.0" height="56.9" fill="#188038"/>
<text x="611.5" y="446" font-family="Arial, sans-serif" font-size="10" text-anchor="middle" fill="#202124" transform="rotate(45 611.5 446)">2010</text>
<rect x="630.0" y="347.5" width="33.0" height="80.5" fill="#188038"/>
<rect x="665.0" y="334.3" width="33.0" height="93.7" fill="#188038"/>
<rect x="700.0" y="338.4" width="33.0" height="89.6" fill="#188038"/>
<rect x="735.0" y="327.9" width="33.0" height="100.1" fill="#188038"/>
<rect x="770.0" y="312.9" width="33.0" height="115.1" fill="#188038"/>
<text x="786.5" y="446" font-family="Arial, sans-serif" font-size="10" text-anchor="middle" fill="#202124" transform="rotate(45 786.5 446)">2015</text>
<rect x="805.0" y="320.6" width="33.0" height="107.4" fill="#188038"/>
<rect x="840.0" y="322.4" width="33.0" height="105.6" fill="#188038"/>
<rect x="875.0" y="287.0" width="33.0" height="141.0" fill="#188038"/>
<rect x="910.0" y="257.8" width="33.0" height="170.2" fill="#188038"/>
<rect x="945.0" y="236.5" width="33.0" height="191.5" fill="#188038"/>
<text x="961.5" y="446" font-family="Arial, sans-serif" font-size="10" text-anchor="middle" fill="#202124" transform="rotate(45 961.5 446)">2020</text>
<rect x="980.0" y="208.7" width="33.0" height="219.3" fill="#188038"/>
<rect x="1015.0" y="185.0" width="33.0" height="243.0" fill="#188038"/>
<rect x="1050.0" y="171.4" width="33.0" height="256.6" fill="#188038"/>
<rect x="1085.0" y="135.9" width="33.0" height="292.1" fill="#188038"/>
<rect x="1120.0" y="44.0" width="33.0" height="384.0" fill="#188038"/>
<text x="1136.5" y="446" font-family="Arial, sans-serif" font-size="10" text-anchor="middle" fill="#202124" transform="rotate(45 1136.5 446)">2025</text>
<rect x="1155.0" y="311.5" width="33.0" height="116.5" fill="#188038"/>
<text x="1171.5" y="446" font-family="Arial, sans-serif" font-size="10" text-anchor="middle" fill="#202124" transform="rotate(45 1171.5 446)">2026</text>
</svg>