<svg xmlns="http://www.w3.org/2000/svg" width="900" height="520" viewBox="0 0 900 520">
<rect width="100%" height="100%" fill="#ffffff"/>
<text x="20.0" y="26.0" font-family="Arial, sans-serif" font-size="18" text-anchor="start" fill="#202124">SciVis year distribution</text>
<line x1="70" y1="428" x2="872" y2="428" stroke="#5f6368"/>
<line x1="70" y1="44" x2="70" y2="428" stroke="#5f6368"/>
<line x1="70" y1="428.0" x2="872" y2="428.0" stroke="#f1f3f4"/>
<text x="62.0" y="432.0" font-family="Arial, sans-serif" font-size="10" text-anchor="end" fill="#202124">0</text>
<line x1="70" y1="332.0" x2="872" y2="332.0" stroke="#f1f3f4"/>
<text x="62.0" y="336.0" font-family="Arial, sans-serif" font-size="10" text-anchor="end" fill="#202124">7</text>
<line x1="70" y1="236.0" x2="872" y2="236.0" stroke="#f1f3f4"/>
<text x="62.0" y="240.0" font-family="Arial, sans-serif" font-size="10" text-anchor="end" fill="#202124">15</text>
<line x1="70" y1="140.0" x2="872" y2="140.0" stroke="#f1f3f4"/>
<text x="62.0" y="144.0" font-family="Arial, sans-serif" font-size="10" text-anchor="end" fill="#202124">23</text>
<line x1="70" y1="44.0" x2="872" y2="44.0" stroke="#f1f3f4"/>
<text x="62.0" y="48.0" font-family="Arial, sans-serif" font-size="10" text-anchor="end" fill="#202124">31</text>
<rect x="70.0" y="44.0" width="199.0" height="384.0" fill="#188038"/>
<text x="169.5" y="446" font-family="Arial, sans-serif" font-size="10" text-anchor="middle" fill="#202124" transform="rotate(45 169.5 446)">2015</text>
<rect x="271.0" y="428.0" width="199.0" height="0.0" fill="#188038"/>
<rect x="472.0" y="428.0" width="199.0" height="0.0" fill="#188038"/>
<rect x="673.0" y="155.5" width="199.0" height="272.5" fill="#188038"/>
<text x="772.5" y="446" font-family="Arial, sans-serif" font-size="10" text-anchor="middle" fill="#202124" transform="rotate(45 772.5 446)">2018</text>
</svg>