<svg xmlns="http://www.w3.org/2000/svg" width="1064" height="520" viewBox="0 0 1064 520">
<rect width="100%" height="100%" fill="#ffffff"/>
<text x="20.0" y="26.0" font-family="Arial, sans-serif" font-size="18" text-anchor="start" fill="#202124">SIBGRAPI year distribution</text>
<line x1="70" y1="428" x2="1036" y2="428" stroke="#5f6368"/>
<line x1="70" y1="44" x2="70" y2="428" stroke="#5f6368"/>
<line x1="70" y1="428.0" x2="1036" y2="428.0" stroke="#f1f3f4"/>
<text x="62.0" y="432.0" font-family="Arial, sans-serif" font-size="10" text-anchor="end" fill="#202124">0</text>
<line x1="70" y1="332.0" x2="1036" y2="332.0" stroke="#f1f3f4"/>
<text x="62.0" y="336.0" font-family="Arial, sans-serif" font-size="10" text-anchor="end" fill="#202124">22</text>
<line x1="70" y1="236.0" x2="1036" y2="236.0" stroke="#f1f3f4"/>
<text x="62.0" y="240.0" font-family="Arial, sans-serif" font-size="10" text-anchor="end" fill="#202124">44</text>
<line x1="70" y1="140.0" x2="1036" y2="140.0" stroke="#f1f3f4"/>
<text x="62.0" y="144.0" font-family="Arial, sans-serif" font-size="10" text-anchor="end" fill="#202124">66</text>
<line x1="70" y1="44.0" x2="1036" y2="44.0" stroke="#f1f3f4"/>
<text x="62.0" y="48.0" font-family="Arial, sans-serif" font-size="10" text-anchor="end" fill="#202124">89</text>
<rect x="70.0" y="156.2" width="32.6" height="271.8" fill="#188038"/>
<text x="86.3" y="446" font-family="Arial, sans-serif" font-size="10" text-anchor="middle" fill="#202124" transform="rotate(45 86.3 446)">1998</text>
<rect x="104.6" y="246.8" width="32.6" height="181.2" fill="#188038"/>
<rect x="139.1" y="130.3" width="32.6" height="297.7" fill="#188038"/>
<rect x="173.7" y="61.3" width="32.6" height="366.7" fill="#188038"/>
<rect x="208.3" y="52.6" width="32.6" height="375.4" fill="#188038"/>
<rect x="242.9" y="203.6" width="32.6" height="224.4" fill="#188038"/>
<text x="259.1" y="446" font-family="Arial, sans-serif" font-size="10" text-anchor="middle" fill="#202124" transform="rotate(45 259.1 446)">2003</text>
<rect x="277.4" y="212.3" width="32.6" height="215.7" fill="#188038"/>
<rect x="312.0" y="225.2" width="32.6" height="202.8" fill="#188038"/>
<rect x="346.6" y="238.2" width="32.6" height="189.8" fill="#188038"/>
<rect x="381.1" y="255.4" width="32.6" height="172.6" fill="#188038"/>
<rect x="415.7" y="264.0" width="32.6" height="164.0" fill="#188038"/>
<text x="432.0" y="446" font-family="Arial, sans-serif" font-size="10" text-anchor="middle" fill="#202124" transform="rotate(45 432.0 446)">2008</text>
<rect x="450.3" y="238.2" width="32.6" height="189.8" fill="#188038"/>
<rect x="484.9" y="212.3" width="32.6" height="215.7" fill="#188038"/>
<rect x="519.4" y="229.5" width="32.6" height="198.5" fill="#188038"/>
<rect x="554.0" y="233.8" width="32.6" height="194.2" fill="#188038"/>
<rect x="588.6" y="220.9" width="32.6" height="207.1" fill="#188038"/>
<text x="604.9" y="446" font-family="Arial, sans-serif" font-size="10" text-anchor="middle" fill="#202124" transform="rotate(45 604.9 446)">2013</text>
<rect x="623.1" y="233.8" width="32.6" height="194.2" fill="#188038"/>
<rect x="657.7" y="233.8" width="32.6" height="194.2" fill="#188038"/>
<rect x="692.3" y="169.1" width="32.6" height="258.9" fill="#188038"/>
<rect x="726.9" y="169.1" width="32.6" height="258.9" fill="#188038"/>
<rect x="761.4" y="160.5" width="32.6" height="267.5" fill="#188038"/>
<text x="777.7" y="446" font-family="Arial, sans-serif" font-size="10" text-anchor="middle" fill="#202124" transform="rotate(45 777.7 446)">2018</text>
<rect x="796.0" y="277.0" width="32.6" height="151.0" fill="#188038"/>
<rect x="830.6" y="233.8" width="32.6" height="194.2" fill="#188038"/>
<rect x="865.1" y="195.0" width="32.6" height="233.0" fill="#188038"/>
<rect x="899.7" y="199.3" width="32.6" height="228.7" fill="#188038"/>
<rect x="934.3" y="229.5" width="32.6" height="198.5" fill="#188038"/>
<text x="950.6" y="446" font-family="Arial, sans-serif" font-size="10" text-anchor="middle" fill="#202124" transform="rotate(45 950.6 446)">2023</text>
<rect x="968.9" y="199.3" width="32.6" height="228.7" fill="#188038"/>
<rect x="1003.4" y="44.0" width="32.6" height="384.0" fill="#188038"/>
<text x="1019.7" y="446" font-family="Arial, sans-serif" font-size="10" text-anchor="middle" fill="#202124" transform="rotate(45 1019.7 446)">2025</text>
</svg>