<svg xmlns="http://www.w3.org/2000/svg" width="900" height="520" viewBox="0 0 900 520">
<rect width="100%" height="100%" fill="#ffffff"/>
<text x="20.0" y="26.0" font-family="Arial, sans-serif" font-size="18" text-anchor="start" fill="#202124">SIGGRAPH Asia year distribution</text>
<line x1="70" y1="428" x2="872" y2="428" stroke="#5f6368"/>
<line x1="70" y1="44" x2="70" y2="428" stroke="#5f6368"/>
<line x1="70" y1="428.0" x2="872" y2="428.0" stroke="#f1f3f4"/>
<text x="62.0" y="432.0" font-family="Arial, sans-serif" font-size="10" text-anchor="end" fill="#202124">0</text>
<line x1="70" y1="332.0" x2="872" y2="332.0" stroke="#f1f3f4"/>
<text x="62.0" y="336.0" font-family="Arial, sans-serif" font-size="10" text-anchor="end" fill="#202124">50</text>
<line x1="70" y1="236.0" x2="872" y2="236.0" stroke="#f1f3f4"/>
<text x="62.0" y="240.0" font-family="Arial, sans-serif" font-size="10" text-anchor="end" fill="#202124">100</text>
<line x1="70" y1="140.0" x2="872" y2="140.0" stroke="#f1f3f4"/>
<text x="62.0" y="144.0" font-family="Arial, sans-serif" font-size="10" text-anchor="end" fill="#202124">150</text>
<line x1="70" y1="44.0" x2="872" y2="44.0" stroke="#f1f3f4"/>
<text x="62.0" y="48.0" font-family="Arial, sans-serif" font-size="10" text-anchor="end" fill="#202124">201</text>
<rect x="70.0" y="397.4" width="112.9" height="30.6" fill="#188038"/>
<text x="126.4" y="446" font-family="Arial, sans-serif" font-size="10" text-anchor="middle" fill="#202124" transform="rotate(45 126.4 446)">2019</text>
<rect x="184.9" y="428.0" width="112.9" height="0.0" fill="#188038"/>
<rect x="299.7" y="428.0" width="112.9" height="0.0" fill="#188038"/>
<rect x="414.6" y="326.7" width="112.9" height="101.3" fill="#188038"/>
<rect x="529.4" y="194.9" width="112.9" height="233.1" fill="#188038"/>
<rect x="644.3" y="149.1" width="112.9" height="278.9" fill="#188038"/>
<text x="700.7" y="446" font-family="Arial, sans-serif" font-size="10" text-anchor="middle" fill="#202124" transform="rotate(45 700.7 446)">2024</text>
<rect x="759.1" y="44.0" width="112.9" height="384.0" fill="#188038"/>
<text x="815.6" y="446" font-family="Arial, sans-serif" font-size="10" text-anchor="middle" fill="#202124" transform="rotate(45 815.6 446)">2025</text>
</svg>