<svg xmlns="http://www.w3.org/2000/svg" width="1140" height="520" viewBox="0 0 1140 520">
<rect width="100%" height="100%" fill="#ffffff"/>
<text x="20.0" y="26.0" font-family="Arial, sans-serif" font-size="18" text-anchor="start" fill="#202124">SIGGRAPH year distribution</text>
<line x1="70" y1="428" x2="1112" y2="428" stroke="#5f6368"/>
<line x1="70" y1="44" x2="70" y2="428" stroke="#5f6368"/>
<line x1="70" y1="428.0" x2="1112" y2="428.0" stroke="#f1f3f4"/>
<text x="62.0" y="432.0" font-family="Arial, sans-serif" font-size="10" text-anchor="end" fill="#202124">0</text>
<line x1="70" y1="332.0" x2="1112" y2="332.0" stroke="#f1f3f4"/>
<text x="62.0" y="336.0" font-family="Arial, sans-serif" font-size="10" text-anchor="end" fill="#202124">35</text>
<line x1="70" y1="236.0" x2="1112" y2="236.0" stroke="#f1f3f4"/>
<text x="62.0" y="240.0" font-family="Arial, sans-serif" font-size="10" text-anchor="end" fill="#202124">71</text>
<line x1="70" y1="140.0" x2="1112" y2="140.0" stroke="#f1f3f4"/>
<text x="62.0" y="144.0" font-family="Arial, sans-serif" font-size="10" text-anchor="end" fill="#202124">106</text>
<line x1="70" y1="44.0" x2="1112" y2="44.0" stroke="#f1f3f4"/>
<text x="62.0" y="48.0" font-family="Arial, sans-serif" font-size="10" text-anchor="end" fill="#202124">142</text>
<rect x="70.0" y="284.7" width="32.8" height="143.3" fill="#188038"/>
<text x="86.4" y="446" font-family="Arial, sans-serif" font-size="10" text-anchor="middle" fill="#202124" transform="rotate(45 86.4 446)">1974</text>
<rect x="104.8" y="330.6" width="32.8" height="97.4" fill="#188038"/>
<rect x="139.6" y="276.6" width="32.8" height="151.4" fill="#188038"/>
<rect x="174.4" y="306.3" width="32.8" height="121.7" fill="#188038"/>
<rect x="209.2" y="257.6" width="32.8" height="170.4" fill="#188038"/>
<rect x="244.0" y="311.7" width="32.8" height="116.3" fill="#188038"/>
<text x="260.4" y="446" font-family="Arial, sans-serif" font-size="10" text-anchor="middle" fill="#202124" transform="rotate(45 260.4 446)">1979</text>
<rect x="278.8" y="287.4" width="32.8" height="140.6" fill="#188038"/>
<rect x="313.6" y="325.2" width="32.8" height="102.8" fill="#188038"/>
<rect x="348.4" y="298.2" width="32.8" height="129.8" fill="#188038"/>
<rect x="383.2" y="306.3" width="32.8" height="121.7" fill="#188038"/>
<rect x="418.0" y="317.1" width="32.8" height="110.9" fill="#188038"/>
<text x="434.4" y="446" font-family="Arial, sans-serif" font-size="10" text-anchor="middle" fill="#202124" transform="rotate(45 434.4 446)">1984</text>
<rect x="452.8" y="303.6" width="32.8" height="124.4" fill="#188038"/>
<rect x="487.6" y="333.4" width="32.8" height="94.6" fill="#188038"/>
<rect x="522.4" y="330.6" width="32.8" height="97.4" fill="#188038"/>
<rect x="557.2" y="292.8" width="32.8" height="135.2" fill="#188038"/>
<rect x="592.0" y="325.2" width="32.8" height="102.8" fill="#188038"/>
<text x="608.4" y="446" font-family="Arial, sans-serif" font-size="10" text-anchor="middle" fill="#202124" transform="rotate(45 608.4 446)">1989</text>
<rect x="626.8" y="311.7" width="32.8" height="116.3" fill="#188038"/>
<rect x="661.6" y="319.8" width="32.8" height="108.2" fill="#188038"/>
<rect x="696.4" y="306.3" width="32.8" height="121.7" fill="#188038"/>
<rect x="731.2" y="257.6" width="32.8" height="170.4" fill="#188038"/>
<rect x="766.0" y="233.3" width="32.8" height="194.7" fill="#188038"/>
<text x="782.4" y="446" font-family="Arial, sans-serif" font-size="10" text-anchor="middle" fill="#202124" transform="rotate(45 782.4 446)">1994</text>
<rect x="800.8" y="227.9" width="32.8" height="200.1" fill="#188038"/>
<rect x="835.6" y="238.7" width="32.8" height="189.3" fill="#188038"/>
<rect x="870.4" y="246.8" width="32.8" height="181.2" fill="#188038"/>
<rect x="905.2" y="306.3" width="32.8" height="121.7" fill="#188038"/>
<rect x="940.0" y="290.1" width="32.8" height="137.9" fill="#188038"/>
<text x="956.4" y="446" font-family="Arial, sans-serif" font-size="10" text-anchor="middle" fill="#202124" transform="rotate(45 956.4 446)">1999</text>
<rect x="974.8" y="268.5" width="32.8" height="159.5" fill="#188038"/>
<rect x="1009.6" y="252.2" width="32.8" height="175.8" fill="#188038"/>
<rect x="1044.4" y="428.0" width="32.8" height="0.0" fill="#188038"/>
<rect x="1079.2" y="44.0" width="32.8" height="384.0" fill="#188038"/>
<text x="1095.6" y="446" font-family="Arial, sans-serif" font-size="10" text-anchor="middle" fill="#202124" transform="rotate(45 1095.6 446)">2003</text>
</svg>