<svg xmlns="http://www.w3.org/2000/svg" width="1520" height="520" viewBox="0 0 1520 520">
<rect width="100%" height="100%" fill="#ffffff"/>
<text x="20.0" y="26.0" font-family="Arial, sans-serif" font-size="18" text-anchor="start" fill="#202124">Supercomputing year distribution</text>
<line x1="70" y1="428" x2="1492" y2="428" stroke="#5f6368"/>
<line x1="70" y1="44" x2="70" y2="428" stroke="#5f6368"/>
<line x1="70" y1="428.0" x2="1492" y2="428.0" stroke="#f1f3f4"/>
<text x="62.0" y="432.0" font-family="Arial, sans-serif" font-size="10" text-anchor="end" fill="#202124">0</text>
<line x1="70" y1="332.0" x2="1492" y2="332.0" stroke="#f1f3f4"/>
<text x="62.0" y="336.0" font-family="Arial, sans-serif" font-size="10" text-anchor="end" fill="#202124">68</text>
<line x1="70" y1="236.0" x2="1492" y2="236.0" stroke="#f1f3f4"/>
<text x="62.0" y="240.0" font-family="Arial, sans-serif" font-size="10" text-anchor="end" fill="#202124">136</text>
<line x1="70" y1="140.0" x2="1492" y2="140.0" stroke="#f1f3f4"/>
<text x="62.0" y="144.0" font-family="Arial, sans-serif" font-size="10" text-anchor="end" fill="#202124">204</text>
<line x1="70" y1="44.0" x2="1492" y2="44.0" stroke="#f1f3f4"/>
<text x="62.0" y="48.0" font-family="Arial, sans-serif" font-size="10" text-anchor="end" fill="#202124">273</text>
<rect x="70.0" y="340.8" width="33.6" height="87.2" fill="#188038"/>
<text x="86.8" y="446" font-family="Arial, sans-serif" font-size="10" text-anchor="middle" fill="#202124" transform="rotate(45 86.8 446)">1987</text>
<rect x="105.6" y="333.8" width="33.6" height="94.2" fill="#188038"/>
<rect x="141.2" y="356.3" width="33.6" height="71.7" fill="#188038"/>
<rect x="176.8" y="368.9" width="33.6" height="59.1" fill="#188038"/>
<rect x="212.4" y="361.9" width="33.6" height="66.1" fill="#188038"/>
<rect x="248.0" y="363.3" width="33.6" height="64.7" fill="#188038"/>
<text x="264.8" y="446" font-family="Arial, sans-serif" font-size="10" text-anchor="middle" fill="#202124" transform="rotate(45 264.8 446)">1992</text>
<rect x="283.6" y="367.5" width="33.6" height="60.5" fill="#188038"/>
<rect x="319.2" y="364.7" width="33.6" height="63.3" fill="#188038"/>
<rect x="354.8" y="356.3" width="33.6" height="71.7" fill="#188038"/>
<rect x="390.4" y="357.7" width="33.6" height="70.3" fill="#188038"/>
<rect x="426.0" y="367.5" width="33.6" height="60.5" fill="#188038"/>
<text x="442.8" y="446" font-family="Arial, sans-serif" font-size="10" text-anchor="middle" fill="#202124" transform="rotate(45 442.8 446)">1997</text>
<rect x="461.6" y="345.0" width="33.6" height="83.0" fill="#188038"/>
<rect x="497.2" y="347.8" width="33.6" height="80.2" fill="#188038"/>
<rect x="532.8" y="381.6" width="33.6" height="46.4" fill="#188038"/>
<rect x="568.4" y="364.7" width="33.6" height="63.3" fill="#188038"/>
<rect x="604.0" y="380.2" width="33.6" height="47.8" fill="#188038"/>
<text x="620.8" y="446" font-family="Arial, sans-serif" font-size="10" text-anchor="middle" fill="#202124" transform="rotate(45 620.8 446)">2002</text>
<rect x="639.6" y="376.0" width="33.6" height="52.0" fill="#188038"/>
<rect x="675.2" y="378.8" width="33.6" height="49.2" fill="#188038"/>
<rect x="710.8" y="368.9" width="33.6" height="59.1" fill="#188038"/>
<rect x="746.4" y="373.1" width="33.6" height="54.9" fill="#188038"/>
<rect x="782.0" y="384.4" width="33.6" height="43.6" fill="#188038"/>
<text x="798.8" y="446" font-family="Arial, sans-serif" font-size="10" text-anchor="middle" fill="#202124" transform="rotate(45 798.8 446)">2007</text>
<rect x="817.6" y="371.7" width="33.6" height="56.3" fill="#188038"/>
<rect x="853.2" y="332.4" width="33.6" height="95.6" fill="#188038"/>
<rect x="888.8" y="323.9" width="33.6" height="104.1" fill="#188038"/>
<rect x="924.4" y="301.4" width="33.6" height="126.6" fill="#188038"/>
<rect x="960.0" y="374.5" width="33.6" height="53.5" fill="#188038"/>
<text x="976.8" y="446" font-family="Arial, sans-serif" font-size="10" text-anchor="middle" fill="#202124" transform="rotate(45 976.8 446)">2012</text>
<rect x="995.6" y="335.2" width="33.6" height="92.8" fill="#188038"/>
<rect x="1031.2" y="44.0" width="33.6" height="384.0" fill="#188038"/>
<rect x="1066.8" y="367.5" width="33.6" height="60.5" fill="#188038"/>
<rect x="1102.4" y="367.5" width="33.6" height="60.5" fill="#188038"/>
<rect x="1138.0" y="388.6" width="33.6" height="39.4" fill="#188038"/>
<text x="1154.8" y="446" font-family="Arial, sans-serif" font-size="10" text-anchor="middle" fill="#202124" transform="rotate(45 1154.8 446)">2017</text>
<rect x="1173.6" y="257.8" width="33.6" height="170.2" fill="#188038"/>
<rect x="1209.2" y="364.7" width="33.6" height="63.3" fill="#188038"/>
<rect x="1244.8" y="224.0" width="33.6" height="204.0" fill="#188038"/>
<rect x="1280.4" y="373.1" width="33.6" height="54.9" fill="#188038"/>
<rect x="1316.0" y="290.2" width="33.6" height="137.8" fill="#188038"/>
<text x="1332.8" y="446" font-family="Arial, sans-serif" font-size="10" text-anchor="middle" fill="#202124" transform="rotate(45 1332.8 446)">2022</text>
<rect x="1351.6" y="371.7" width="33.6" height="56.3" fill="#188038"/>
<rect x="1387.2" y="307.0" width="33.6" height="121.0" fill="#188038"/>
<rect x="1422.8" y="311.3" width="33.6" height="116.7" fill="#188038"/>
<rect x="1458.4" y="280.3" width="33.6" height="147.7" fill="#188038"/>
<text x="1475.2" y="446" font-family="Arial, sans-serif" font-size="10" text-anchor="middle" fill="#202124" transform="rotate(45 1475.2 446)">2026</text>
</svg>