<svg xmlns="http://www.w3.org/2000/svg" width="1596" height="520" viewBox="0 0 1596 520">
<rect width="100%" height="100%" fill="#ffffff"/>
<text x="20.0" y="26.0" font-family="Arial, sans-serif" font-size="18" text-anchor="start" fill="#202124">The Visual Computer year distribution</text>
<line x1="70" y1="428" x2="1568" y2="428" stroke="#5f6368"/>
<line x1="70" y1="44" x2="70" y2="428" stroke="#5f6368"/>
<line x1="70" y1="428.0" x2="1568" y2="428.0" stroke="#f1f3f4"/>
<text x="62.0" y="432.0" font-family="Arial, sans-serif" font-size="10" text-anchor="end" fill="#202124">0</text>
<line x1="70" y1="332.0" x2="1568" y2="332.0" stroke="#f1f3f4"/>
<text x="62.0" y="336.0" font-family="Arial, sans-serif" font-size="10" text-anchor="end" fill="#202124">199</text>
<line x1="70" y1="236.0" x2="1568" y2="236.0" stroke="#f1f3f4"/>
<text x="62.0" y="240.0" font-family="Arial, sans-serif" font-size="10" text-anchor="end" fill="#202124">398</text>
<line x1="70" y1="140.0" x2="1568" y2="140.0" stroke="#f1f3f4"/>
<text x="62.0" y="144.0" font-family="Arial, sans-serif" font-size="10" text-anchor="end" fill="#202124">597</text>
<line x1="70" y1="44.0" x2="1568" y2="44.0" stroke="#f1f3f4"/>
<text x="62.0" y="48.0" font-family="Arial, sans-serif" font-size="10" text-anchor="end" fill="#202124">797</text>
<rect x="70.0" y="416.4" width="33.7" height="11.6" fill="#188038"/>
<text x="86.9" y="446" font-family="Arial, sans-serif" font-size="10" text-anchor="middle" fill="#202124" transform="rotate(45 86.9 446)">1985</text>
<rect x="105.7" y="410.2" width="33.7" height="17.8" fill="#188038"/>
<rect x="141.4" y="417.4" width="33.7" height="10.6" fill="#188038"/>
<rect x="177.1" y="407.8" width="33.7" height="20.2" fill="#188038"/>
<rect x="212.9" y="413.5" width="33.7" height="14.5" fill="#188038"/>
<rect x="248.6" y="412.1" width="33.7" height="15.9" fill="#188038"/>
<text x="265.4" y="446" font-family="Arial, sans-serif" font-size="10" text-anchor="middle" fill="#202124" transform="rotate(45 265.4 446)">1990</text>
<rect x="284.3" y="411.6" width="33.7" height="16.4" fill="#188038"/>
<rect x="320.0" y="409.7" width="33.7" height="18.3" fill="#188038"/>
<rect x="355.7" y="407.8" width="33.7" height="20.2" fill="#188038"/>
<rect x="391.4" y="415.0" width="33.7" height="13.0" fill="#188038"/>
<rect x="427.1" y="411.1" width="33.7" height="16.9" fill="#188038"/>
<text x="444.0" y="446" font-family="Arial, sans-serif" font-size="10" text-anchor="middle" fill="#202124" transform="rotate(45 444.0 446)">1995</text>
<rect x="462.9" y="407.8" width="33.7" height="20.2" fill="#188038"/>
<rect x="498.6" y="415.0" width="33.7" height="13.0" fill="#188038"/>
<rect x="534.3" y="405.8" width="33.7" height="22.2" fill="#188038"/>
<rect x="570.0" y="408.7" width="33.7" height="19.3" fill="#188038"/>
<rect x="605.7" y="410.2" width="33.7" height="17.8" fill="#188038"/>
<text x="622.6" y="446" font-family="Arial, sans-serif" font-size="10" text-anchor="middle" fill="#202124" transform="rotate(45 622.6 446)">2000</text>
<rect x="641.4" y="407.8" width="33.7" height="20.2" fill="#188038"/>
<rect x="677.1" y="409.2" width="33.7" height="18.8" fill="#188038"/>
<rect x="712.9" y="404.9" width="33.7" height="23.1" fill="#188038"/>
<rect x="748.6" y="404.4" width="33.7" height="23.6" fill="#188038"/>
<rect x="784.3" y="385.1" width="33.7" height="42.9" fill="#188038"/>
<text x="801.1" y="446" font-family="Arial, sans-serif" font-size="10" text-anchor="middle" fill="#202124" transform="rotate(45 801.1 446)">2005</text>
<rect x="820.0" y="381.7" width="33.7" height="46.3" fill="#188038"/>
<rect x="855.7" y="380.8" width="33.7" height="47.2" fill="#188038"/>
<rect x="891.4" y="378.9" width="33.7" height="49.1" fill="#188038"/>
<rect x="927.1" y="377.9" width="33.7" height="50.1" fill="#188038"/>
<rect x="962.9" y="362.5" width="33.7" height="65.5" fill="#188038"/>
<text x="979.7" y="446" font-family="Arial, sans-serif" font-size="10" text-anchor="middle" fill="#202124" transform="rotate(45 979.7 446)">2010</text>
<rect x="998.6" y="379.8" width="33.7" height="48.2" fill="#188038"/>
<rect x="1034.3" y="378.4" width="33.7" height="49.6" fill="#188038"/>
<rect x="1070.0" y="371.1" width="33.7" height="56.9" fill="#188038"/>
<rect x="1105.7" y="371.6" width="33.7" height="56.4" fill="#188038"/>
<rect x="1141.4" y="364.4" width="33.7" height="63.6" fill="#188038"/>
<text x="1158.3" y="446" font-family="Arial, sans-serif" font-size="10" text-anchor="middle" fill="#202124" transform="rotate(45 1158.3 446)">2015</text>
<rect x="1177.1" y="360.5" width="33.7" height="67.5" fill="#188038"/>
<rect x="1212.9" y="363.9" width="33.7" height="64.1" fill="#188038"/>
<rect x="1248.6" y="360.5" width="33.7" height="67.5" fill="#188038"/>
<rect x="1284.3" y="360.1" width="33.7" height="67.9" fill="#188038"/>
<rect x="1320.0" y="339.8" width="33.7" height="88.2" fill="#188038"/>
<text x="1336.9" y="446" font-family="Arial, sans-serif" font-size="10" text-anchor="middle" fill="#202124" transform="rotate(45 1336.9 446)">2020</text>
<rect x="1355.7" y="319.6" width="33.7" height="108.4" fill="#188038"/>
<rect x="1391.4" y="283.0" width="33.7" height="145.0" fill="#188038"/>
<rect x="1427.1" y="213.6" width="33.7" height="214.4" fill="#188038"/>
<rect x="1462.9" y="150.5" width="33.7" height="277.5" fill="#188038"/>
<rect x="1498.6" y="44.0" width="33.7" height="384.0" fill="#188038"/>
<text x="1515.4" y="446" font-family="Arial, sans-serif" font-size="10" text-anchor="middle" fill="#202124" transform="rotate(45 1515.4 446)">2025</text>
<rect x="1534.3" y="252.6" width="33.7" height="175.4" fill="#188038"/>
<text x="1551.1" y="446" font-family="Arial, sans-serif" font-size="10" text-anchor="middle" fill="#202124" transform="rotate(45 1551.1 446)">2026</text>
</svg>