<svg xmlns="http://www.w3.org/2000/svg" width="1254" height="520" viewBox="0 0 1254 520">
<rect width="100%" height="100%" fill="#ffffff"/>
<text x="20.0" y="26.0" font-family="Arial, sans-serif" font-size="18" text-anchor="start" fill="#202124">TOCHI year distribution</text>
<line x1="70" y1="428" x2="1226" y2="428" stroke="#5f6368"/>
<line x1="70" y1="44" x2="70" y2="428" stroke="#5f6368"/>
<line x1="70" y1="428.0" x2="1226" y2="428.0" stroke="#f1f3f4"/>
<text x="62.0" y="432.0" font-family="Arial, sans-serif" font-size="10" text-anchor="end" fill="#202124">0</text>
<line x1="70" y1="332.0" x2="1226" y2="332.0" stroke="#f1f3f4"/>
<text x="62.0" y="336.0" font-family="Arial, sans-serif" font-size="10" text-anchor="end" fill="#202124">22</text>
<line x1="70" y1="236.0" x2="1226" y2="236.0" stroke="#f1f3f4"/>
<text x="62.0" y="240.0" font-family="Arial, sans-serif" font-size="10" text-anchor="end" fill="#202124">45</text>
<line x1="70" y1="140.0" x2="1226" y2="140.0" stroke="#f1f3f4"/>
<text x="62.0" y="144.0" font-family="Arial, sans-serif" font-size="10" text-anchor="end" fill="#202124">68</text>
<line x1="70" y1="44.0" x2="1226" y2="44.0" stroke="#f1f3f4"/>
<text x="62.0" y="48.0" font-family="Arial, sans-serif" font-size="10" text-anchor="end" fill="#202124">91</text>
<rect x="70.0" y="373.1" width="33.1" height="54.9" fill="#188038"/>
<text x="86.5" y="446" font-family="Arial, sans-serif" font-size="10" text-anchor="middle" fill="#202124" transform="rotate(45 86.5 446)">1994</text>
<rect x="105.1" y="368.9" width="33.1" height="59.1" fill="#188038"/>
<rect x="140.2" y="377.4" width="33.1" height="50.6" fill="#188038"/>
<rect x="175.3" y="373.1" width="33.1" height="54.9" fill="#188038"/>
<rect x="210.4" y="385.8" width="33.1" height="42.2" fill="#188038"/>
<rect x="245.5" y="368.9" width="33.1" height="59.1" fill="#188038"/>
<text x="262.0" y="446" font-family="Arial, sans-serif" font-size="10" text-anchor="middle" fill="#202124" transform="rotate(45 262.0 446)">1999</text>
<rect x="280.5" y="343.6" width="33.1" height="84.4" fill="#188038"/>
<rect x="315.6" y="377.4" width="33.1" height="50.6" fill="#188038"/>
<rect x="350.7" y="364.7" width="33.1" height="63.3" fill="#188038"/>
<rect x="385.8" y="368.9" width="33.1" height="59.1" fill="#188038"/>
<rect x="420.9" y="360.5" width="33.1" height="67.5" fill="#188038"/>
<text x="437.5" y="446" font-family="Arial, sans-serif" font-size="10" text-anchor="middle" fill="#202124" transform="rotate(45 437.5 446)">2004</text>
<rect x="456.0" y="326.7" width="33.1" height="101.3" fill="#188038"/>
<rect x="491.1" y="347.8" width="33.1" height="80.2" fill="#188038"/>
<rect x="526.2" y="364.7" width="33.1" height="63.3" fill="#188038"/>
<rect x="561.3" y="326.7" width="33.1" height="101.3" fill="#188038"/>
<rect x="596.4" y="339.4" width="33.1" height="88.6" fill="#188038"/>
<text x="612.9" y="446" font-family="Arial, sans-serif" font-size="10" text-anchor="middle" fill="#202124" transform="rotate(45 612.9 446)">2009</text>
<rect x="631.5" y="352.0" width="33.1" height="76.0" fill="#188038"/>
<rect x="666.5" y="330.9" width="33.1" height="97.1" fill="#188038"/>
<rect x="701.6" y="293.0" width="33.1" height="135.0" fill="#188038"/>
<rect x="736.7" y="276.1" width="33.1" height="151.9" fill="#188038"/>
<rect x="771.8" y="309.8" width="33.1" height="118.2" fill="#188038"/>
<text x="788.4" y="446" font-family="Arial, sans-serif" font-size="10" text-anchor="middle" fill="#202124" transform="rotate(45 788.4 446)">2014</text>
<rect x="806.9" y="255.0" width="33.1" height="173.0" fill="#188038"/>
<rect x="842.0" y="259.2" width="33.1" height="168.8" fill="#188038"/>
<rect x="877.1" y="271.9" width="33.1" height="156.1" fill="#188038"/>
<rect x="912.2" y="255.0" width="33.1" height="173.0" fill="#188038"/>
<rect x="947.3" y="255.0" width="33.1" height="173.0" fill="#188038"/>
<text x="963.8" y="446" font-family="Arial, sans-serif" font-size="10" text-anchor="middle" fill="#202124" transform="rotate(45 963.8 446)">2019</text>
<rect x="982.4" y="233.9" width="33.1" height="194.1" fill="#188038"/>
<rect x="1017.5" y="229.7" width="33.1" height="198.3" fill="#188038"/>
<rect x="1052.5" y="174.8" width="33.1" height="253.2" fill="#188038"/>
<rect x="1087.6" y="44.0" width="33.1" height="384.0" fill="#188038"/>
<rect x="1122.7" y="77.8" width="33.1" height="350.2" fill="#188038"/>
<text x="1139.3" y="446" font-family="Arial, sans-serif" font-size="10" text-anchor="middle" fill="#202124" transform="rotate(45 1139.3 446)">2024</text>
<rect x="1157.8" y="141.1" width="33.1" height="286.9" fill="#188038"/>
<rect x="1192.9" y="322.5" width="33.1" height="105.5" fill="#188038"/>
<text x="1209.5" y="446" font-family="Arial, sans-serif" font-size="10" text-anchor="middle" fill="#202124" transform="rotate(45 1209.5 446)">2026</text>
</svg>