<svg xmlns="http://www.w3.org/2000/svg" width="1216" height="520" viewBox="0 0 1216 520">
<rect width="100%" height="100%" fill="#ffffff"/>
<text x="20.0" y="26.0" font-family="Arial, sans-serif" font-size="18" text-anchor="start" fill="#202124">TVCG year distribution</text>
<line x1="70" y1="428" x2="1188" y2="428" stroke="#5f6368"/>
<line x1="70" y1="44" x2="70" y2="428" stroke="#5f6368"/>
<line x1="70" y1="428.0" x2="1188" y2="428.0" stroke="#f1f3f4"/>
<text x="62.0" y="432.0" font-family="Arial, sans-serif" font-size="10" text-anchor="end" fill="#202124">0</text>
<line x1="70" y1="332.0" x2="1188" y2="332.0" stroke="#f1f3f4"/>
<text x="62.0" y="336.0" font-family="Arial, sans-serif" font-size="10" text-anchor="end" fill="#202124">211</text>
<line x1="70" y1="236.0" x2="1188" y2="236.0" stroke="#f1f3f4"/>
<text x="62.0" y="240.0" font-family="Arial, sans-serif" font-size="10" text-anchor="end" fill="#202124">422</text>
<line x1="70" y1="140.0" x2="1188" y2="140.0" stroke="#f1f3f4"/>
<text x="62.0" y="144.0" font-family="Arial, sans-serif" font-size="10" text-anchor="end" fill="#202124">633</text>
<line x1="70" y1="44.0" x2="1188" y2="44.0" stroke="#f1f3f4"/>
<text x="62.0" y="48.0" font-family="Arial, sans-serif" font-size="10" text-anchor="end" fill="#202124">845</text>
<rect x="70.0" y="413.5" width="33.0" height="14.5" fill="#188038"/>
<text x="86.5" y="446" font-family="Arial, sans-serif" font-size="10" text-anchor="middle" fill="#202124" transform="rotate(45 86.5 446)">1995</text>
<rect x="105.0" y="412.1" width="33.0" height="15.9" fill="#188038"/>
<rect x="140.0" y="414.4" width="33.0" height="13.6" fill="#188038"/>
<rect x="175.0" y="415.3" width="33.0" height="12.7" fill="#188038"/>
<rect x="210.0" y="416.2" width="33.0" height="11.8" fill="#188038"/>
<rect x="245.0" y="414.8" width="33.0" height="13.2" fill="#188038"/>
<text x="261.5" y="446" font-family="Arial, sans-serif" font-size="10" text-anchor="middle" fill="#202124" transform="rotate(45 261.5 446)">2000</text>
<rect x="280.0" y="414.4" width="33.0" height="13.6" fill="#188038"/>
<rect x="315.0" y="414.4" width="33.0" height="13.6" fill="#188038"/>
<rect x="350.0" y="405.7" width="33.0" height="22.3" fill="#188038"/>
<rect x="385.0" y="398.0" width="33.0" height="30.0" fill="#188038"/>
<rect x="420.0" y="395.3" width="33.0" height="32.7" fill="#188038"/>
<text x="436.5" y="446" font-family="Arial, sans-serif" font-size="10" text-anchor="middle" fill="#202124" transform="rotate(45 436.5 446)">2005</text>
<rect x="455.0" y="350.3" width="33.0" height="77.7" fill="#188038"/>
<rect x="490.0" y="347.1" width="33.0" height="80.9" fill="#188038"/>
<rect x="525.0" y="352.6" width="33.0" height="75.4" fill="#188038"/>
<rect x="560.0" y="353.9" width="33.0" height="74.1" fill="#188038"/>
<rect x="595.0" y="354.4" width="33.0" height="73.6" fill="#188038"/>
<text x="611.5" y="446" font-family="Arial, sans-serif" font-size="10" text-anchor="middle" fill="#202124" transform="rotate(45 611.5 446)">2010</text>
<rect x="630.0" y="316.7" width="33.0" height="111.3" fill="#188038"/>
<rect x="665.0" y="304.8" width="33.0" height="123.2" fill="#188038"/>
<rect x="700.0" y="302.1" width="33.0" height="125.9" fill="#188038"/>
<rect x="735.0" y="315.8" width="33.0" height="112.2" fill="#188038"/>
<rect x="770.0" y="370.7" width="33.0" height="57.3" fill="#188038"/>
<text x="786.5" y="446" font-family="Arial, sans-serif" font-size="10" text-anchor="middle" fill="#202124" transform="rotate(45 786.5 446)">2015</text>
<rect x="805.0" y="318.0" width="33.0" height="110.0" fill="#188038"/>
<rect x="840.0" y="315.3" width="33.0" height="112.7" fill="#188038"/>
<rect x="875.0" y="294.4" width="33.0" height="133.6" fill="#188038"/>
<rect x="910.0" y="296.2" width="33.0" height="131.8" fill="#188038"/>
<rect x="945.0" y="289.4" width="33.0" height="138.6" fill="#188038"/>
<text x="961.5" y="446" font-family="Arial, sans-serif" font-size="10" text-anchor="middle" fill="#202124" transform="rotate(45 961.5 446)">2020</text>
<rect x="980.0" y="253.5" width="33.0" height="174.5" fill="#188038"/>
<rect x="1015.0" y="235.3" width="33.0" height="192.7" fill="#188038"/>
<rect x="1050.0" y="220.3" width="33.0" height="207.7" fill="#188038"/>
<rect x="1085.0" y="151.7" width="33.0" height="276.3" fill="#188038"/>
<rect x="1120.0" y="44.0" width="33.0" height="384.0" fill="#188038"/>
<text x="1136.5" y="446" font-family="Arial, sans-serif" font-size="10" text-anchor="middle" fill="#202124" transform="rotate(45 1136.5 446)">2025</text>
<rect x="1155.0" y="154.0" width="33.0" height="274.0" fill="#188038"/>
<text x="1171.5" y="446" font-family="Arial, sans-serif" font-size="10" text-anchor="middle" fill="#202124" transform="rotate(45 1171.5 446)">2026</text>
</svg>