<svg xmlns="http://www.w3.org/2000/svg" width="900" height="520" viewBox="0 0 900 520">
<rect width="100%" height="100%" fill="#ffffff"/>
<text x="20.0" y="26.0" font-family="Arial, sans-serif" font-size="18" text-anchor="start" fill="#202124">UbiComp year distribution</text>
<line x1="70" y1="428" x2="872" y2="428" stroke="#5f6368"/>
<line x1="70" y1="44" x2="70" y2="428" stroke="#5f6368"/>
<line x1="70" y1="428.0" x2="872" y2="428.0" stroke="#f1f3f4"/>
<text x="62.0" y="432.0" font-family="Arial, sans-serif" font-size="10" text-anchor="end" fill="#202124">0</text>
<line x1="70" y1="332.0" x2="872" y2="332.0" stroke="#f1f3f4"/>
<text x="62.0" y="336.0" font-family="Arial, sans-serif" font-size="10" text-anchor="end" fill="#202124">55</text>
<line x1="70" y1="236.0" x2="872" y2="236.0" stroke="#f1f3f4"/>
<text x="62.0" y="240.0" font-family="Arial, sans-serif" font-size="10" text-anchor="end" fill="#202124">110</text>
<line x1="70" y1="140.0" x2="872" y2="140.0" stroke="#f1f3f4"/>
<text x="62.0" y="144.0" font-family="Arial, sans-serif" font-size="10" text-anchor="end" fill="#202124">165</text>
<line x1="70" y1="44.0" x2="872" y2="44.0" stroke="#f1f3f4"/>
<text x="62.0" y="48.0" font-family="Arial, sans-serif" font-size="10" text-anchor="end" fill="#202124">220</text>
<rect x="70.0" y="373.9" width="40.3" height="54.1" fill="#188038"/>
<text x="90.2" y="446" font-family="Arial, sans-serif" font-size="10" text-anchor="middle" fill="#202124" transform="rotate(45 90.2 446)">2001</text>
<rect x="112.3" y="377.4" width="40.3" height="50.6" fill="#188038"/>
<rect x="154.6" y="380.9" width="40.3" height="47.1" fill="#188038"/>
<rect x="196.9" y="382.6" width="40.3" height="45.4" fill="#188038"/>
<rect x="239.3" y="389.6" width="40.3" height="38.4" fill="#188038"/>
<rect x="281.6" y="375.6" width="40.3" height="52.4" fill="#188038"/>
<text x="301.7" y="446" font-family="Arial, sans-serif" font-size="10" text-anchor="middle" fill="#202124" transform="rotate(45 301.7 446)">2006</text>
<rect x="323.9" y="377.4" width="40.3" height="50.6" fill="#188038"/>
<rect x="366.2" y="354.7" width="40.3" height="73.3" fill="#188038"/>
<rect x="408.5" y="373.9" width="40.3" height="54.1" fill="#188038"/>
<rect x="450.8" y="358.2" width="40.3" height="69.8" fill="#188038"/>
<rect x="493.2" y="208.1" width="40.3" height="219.9" fill="#188038"/>
<text x="513.3" y="446" font-family="Arial, sans-serif" font-size="10" text-anchor="middle" fill="#202124" transform="rotate(45 513.3 446)">2011</text>
<rect x="535.5" y="44.0" width="40.3" height="384.0" fill="#188038"/>
<rect x="577.8" y="265.7" width="40.3" height="162.3" fill="#188038"/>
<rect x="620.1" y="262.2" width="40.3" height="165.8" fill="#188038"/>
<rect x="662.4" y="215.1" width="40.3" height="212.9" fill="#188038"/>
<rect x="704.7" y="227.3" width="40.3" height="200.7" fill="#188038"/>
<text x="724.9" y="446" font-family="Arial, sans-serif" font-size="10" text-anchor="middle" fill="#202124" transform="rotate(45 724.9 446)">2016</text>
<rect x="747.1" y="428.0" width="40.3" height="0.0" fill="#188038"/>
<rect x="789.4" y="325.0" width="40.3" height="103.0" fill="#188038"/>
<rect x="831.7" y="333.7" width="40.3" height="94.3" fill="#188038"/>
<text x="851.8" y="446" font-family="Arial, sans-serif" font-size="10" text-anchor="middle" fill="#202124" transform="rotate(45 851.8 446)">2019</text>
</svg>