<svg xmlns="http://www.w3.org/2000/svg" width="1444" height="520" viewBox="0 0 1444 520">
<rect width="100%" height="100%" fill="#ffffff"/>
<text x="20.0" y="26.0" font-family="Arial, sans-serif" font-size="18" text-anchor="start" fill="#202124">UIST year distribution</text>
<line x1="70" y1="428" x2="1416" y2="428" stroke="#5f6368"/>
<line x1="70" y1="44" x2="70" y2="428" stroke="#5f6368"/>
<line x1="70" y1="428.0" x2="1416" y2="428.0" stroke="#f1f3f4"/>
<text x="62.0" y="432.0" font-family="Arial, sans-serif" font-size="10" text-anchor="end" fill="#202124">0</text>
<line x1="70" y1="332.0" x2="1416" y2="332.0" stroke="#f1f3f4"/>
<text x="62.0" y="336.0" font-family="Arial, sans-serif" font-size="10" text-anchor="end" fill="#202124">97</text>
<line x1="70" y1="236.0" x2="1416" y2="236.0" stroke="#f1f3f4"/>
<text x="62.0" y="240.0" font-family="Arial, sans-serif" font-size="10" text-anchor="end" fill="#202124">195</text>
<line x1="70" y1="140.0" x2="1416" y2="140.0" stroke="#f1f3f4"/>
<text x="62.0" y="144.0" font-family="Arial, sans-serif" font-size="10" text-anchor="end" fill="#202124">292</text>
<line x1="70" y1="44.0" x2="1416" y2="44.0" stroke="#f1f3f4"/>
<text x="62.0" y="48.0" font-family="Arial, sans-serif" font-size="10" text-anchor="end" fill="#202124">390</text>
<rect x="70.0" y="407.3" width="33.5" height="20.7" fill="#188038"/>
<text x="86.7" y="446" font-family="Arial, sans-serif" font-size="10" text-anchor="middle" fill="#202124" transform="rotate(45 86.7 446)">1988</text>
<rect x="105.5" y="407.3" width="33.5" height="20.7" fill="#188038"/>
<rect x="140.9" y="409.3" width="33.5" height="18.7" fill="#188038"/>
<rect x="176.4" y="404.4" width="33.5" height="23.6" fill="#188038"/>
<rect x="211.9" y="405.4" width="33.5" height="22.6" fill="#188038"/>
<rect x="247.4" y="401.4" width="33.5" height="26.6" fill="#188038"/>
<text x="264.1" y="446" font-family="Arial, sans-serif" font-size="10" text-anchor="middle" fill="#202124" transform="rotate(45 264.1 446)">1993</text>
<rect x="282.8" y="397.5" width="33.5" height="30.5" fill="#188038"/>
<rect x="318.3" y="395.5" width="33.5" height="32.5" fill="#188038"/>
<rect x="353.8" y="399.4" width="33.5" height="28.6" fill="#188038"/>
<rect x="389.3" y="394.5" width="33.5" height="33.5" fill="#188038"/>
<rect x="424.7" y="397.5" width="33.5" height="30.5" fill="#188038"/>
<text x="441.5" y="446" font-family="Arial, sans-serif" font-size="10" text-anchor="middle" fill="#202124" transform="rotate(45 441.5 446)">1998</text>
<rect x="460.2" y="402.4" width="33.5" height="25.6" fill="#188038"/>
<rect x="495.7" y="400.4" width="33.5" height="27.6" fill="#188038"/>
<rect x="531.2" y="397.5" width="33.5" height="30.5" fill="#188038"/>
<rect x="566.6" y="402.4" width="33.5" height="25.6" fill="#188038"/>
<rect x="602.1" y="403.4" width="33.5" height="24.6" fill="#188038"/>
<text x="618.8" y="446" font-family="Arial, sans-serif" font-size="10" text-anchor="middle" fill="#202124" transform="rotate(45 618.8 446)">2003</text>
<rect x="637.6" y="389.6" width="33.5" height="38.4" fill="#188038"/>
<rect x="673.1" y="396.5" width="33.5" height="31.5" fill="#188038"/>
<rect x="708.5" y="386.6" width="33.5" height="41.4" fill="#188038"/>
<rect x="744.0" y="392.6" width="33.5" height="35.4" fill="#188038"/>
<rect x="779.5" y="392.6" width="33.5" height="35.4" fill="#188038"/>
<text x="796.2" y="446" font-family="Arial, sans-serif" font-size="10" text-anchor="middle" fill="#202124" transform="rotate(45 796.2 446)">2008</text>
<rect x="814.9" y="393.5" width="33.5" height="34.5" fill="#188038"/>
<rect x="850.4" y="339.4" width="33.5" height="88.6" fill="#188038"/>
<rect x="885.9" y="321.7" width="33.5" height="106.3" fill="#188038"/>
<rect x="921.4" y="323.6" width="33.5" height="104.4" fill="#188038"/>
<rect x="956.8" y="317.7" width="33.5" height="110.3" fill="#188038"/>
<text x="973.6" y="446" font-family="Arial, sans-serif" font-size="10" text-anchor="middle" fill="#202124" transform="rotate(45 973.6 446)">2013</text>
<rect x="992.3" y="297.0" width="33.5" height="131.0" fill="#188038"/>
<rect x="1027.8" y="313.8" width="33.5" height="114.2" fill="#188038"/>
<rect x="1063.3" y="268.5" width="33.5" height="159.5" fill="#188038"/>
<rect x="1098.7" y="297.0" width="33.5" height="131.0" fill="#188038"/>
<rect x="1134.2" y="271.4" width="33.5" height="156.6" fill="#188038"/>
<text x="1150.9" y="446" font-family="Arial, sans-serif" font-size="10" text-anchor="middle" fill="#202124" transform="rotate(45 1150.9 446)">2018</text>
<rect x="1169.7" y="279.3" width="33.5" height="148.7" fill="#188038"/>
<rect x="1205.2" y="273.4" width="33.5" height="154.6" fill="#188038"/>
<rect x="1240.6" y="280.3" width="33.5" height="147.7" fill="#188038"/>
<rect x="1276.1" y="228.1" width="33.5" height="199.9" fill="#188038"/>
<rect x="1311.6" y="188.7" width="33.5" height="239.3" fill="#188038"/>
<text x="1328.3" y="446" font-family="Arial, sans-serif" font-size="10" text-anchor="middle" fill="#202124" transform="rotate(45 1328.3 446)">2023</text>
<rect x="1347.1" y="171.0" width="33.5" height="257.0" fill="#188038"/>
<rect x="1382.5" y="44.0" width="33.5" height="384.0" fill="#188038"/>
<text x="1399.3" y="446" font-family="Arial, sans-serif" font-size="10" text-anchor="middle" fill="#202124" transform="rotate(45 1399.3 446)">2025</text>
</svg>