<svg xmlns="http://www.w3.org/2000/svg" width="900" height="520" viewBox="0 0 900 520">
<rect width="100%" height="100%" fill="#ffffff"/>
<text x="20.0" y="26.0" font-family="Arial, sans-serif" font-size="18" text-anchor="start" fill="#202124">VAST year distribution</text>
<line x1="70" y1="428" x2="872" y2="428" stroke="#5f6368"/>
<line x1="70" y1="44" x2="70" y2="428" stroke="#5f6368"/>
<line x1="70" y1="428.0" x2="872" y2="428.0" stroke="#f1f3f4"/>
<text x="62.0" y="432.0" font-family="Arial, sans-serif" font-size="10" text-anchor="end" fill="#202124">0</text>
<line x1="70" y1="332.0" x2="872" y2="332.0" stroke="#f1f3f4"/>
<text x="62.0" y="336.0" font-family="Arial, sans-serif" font-size="10" text-anchor="end" fill="#202124">27</text>
<line x1="70" y1="236.0" x2="872" y2="236.0" stroke="#f1f3f4"/>
<text x="62.0" y="240.0" font-family="Arial, sans-serif" font-size="10" text-anchor="end" fill="#202124">55</text>
<line x1="70" y1="140.0" x2="872" y2="140.0" stroke="#f1f3f4"/>
<text x="62.0" y="144.0" font-family="Arial, sans-serif" font-size="10" text-anchor="end" fill="#202124">82</text>
<line x1="70" y1="44.0" x2="872" y2="44.0" stroke="#f1f3f4"/>
<text x="62.0" y="48.0" font-family="Arial, sans-serif" font-size="10" text-anchor="end" fill="#202124">110</text>
<rect x="70.0" y="344.2" width="42.7" height="83.8" fill="#188038"/>
<text x="91.3" y="446" font-family="Arial, sans-serif" font-size="10" text-anchor="middle" fill="#202124" transform="rotate(45 91.3 446)">2003</text>
<rect x="114.7" y="330.3" width="42.7" height="97.7" fill="#188038"/>
<rect x="159.3" y="368.7" width="42.7" height="59.3" fill="#188038"/>
<rect x="204.0" y="215.1" width="42.7" height="212.9" fill="#188038"/>
<rect x="248.7" y="197.6" width="42.7" height="230.4" fill="#188038"/>
<rect x="293.3" y="201.1" width="42.7" height="226.9" fill="#188038"/>
<text x="314.7" y="446" font-family="Arial, sans-serif" font-size="10" text-anchor="middle" fill="#202124" transform="rotate(45 314.7 446)">2008</text>
<rect x="338.0" y="152.2" width="42.7" height="275.8" fill="#188038"/>
<rect x="382.7" y="44.0" width="42.7" height="384.0" fill="#188038"/>
<rect x="427.3" y="71.9" width="42.7" height="356.1" fill="#188038"/>
<rect x="472.0" y="89.4" width="42.7" height="338.6" fill="#188038"/>
<rect x="516.7" y="428.0" width="42.7" height="0.0" fill="#188038"/>
<text x="538.0" y="446" font-family="Arial, sans-serif" font-size="10" text-anchor="middle" fill="#202124" transform="rotate(45 538.0 446)">2013</text>
<rect x="561.3" y="54.5" width="42.7" height="373.5" fill="#188038"/>
<rect x="606.0" y="190.6" width="42.7" height="237.4" fill="#188038"/>
<rect x="650.7" y="361.7" width="42.7" height="66.3" fill="#188038"/>
<rect x="695.3" y="239.5" width="42.7" height="188.5" fill="#188038"/>
<rect x="740.0" y="326.8" width="42.7" height="101.2" fill="#188038"/>
<text x="761.3" y="446" font-family="Arial, sans-serif" font-size="10" text-anchor="middle" fill="#202124" transform="rotate(45 761.3 446)">2018</text>
<rect x="784.7" y="309.3" width="42.7" height="118.7" fill="#188038"/>
<rect x="829.3" y="393.1" width="42.7" height="34.9" fill="#188038"/>
<text x="850.7" y="446" font-family="Arial, sans-serif" font-size="10" text-anchor="middle" fill="#202124" transform="rotate(45 850.7 446)">2020</text>
</svg>