<svg xmlns="http://www.w3.org/2000/svg" width="900" height="520" viewBox="0 0 900 520">
<rect width="100%" height="100%" fill="#ffffff"/>
<text x="20.0" y="26.0" font-family="Arial, sans-serif" font-size="18" text-anchor="start" fill="#202124">VCBM year distribution</text>
<line x1="70" y1="428" x2="872" y2="428" stroke="#5f6368"/>
<line x1="70" y1="44" x2="70" y2="428" stroke="#5f6368"/>
<line x1="70" y1="428.0" x2="872" y2="428.0" stroke="#f1f3f4"/>
<text x="62.0" y="432.0" font-family="Arial, sans-serif" font-size="10" text-anchor="end" fill="#202124">0</text>
<line x1="70" y1="332.0" x2="872" y2="332.0" stroke="#f1f3f4"/>
<text x="62.0" y="336.0" font-family="Arial, sans-serif" font-size="10" text-anchor="end" fill="#202124">7</text>
<line x1="70" y1="236.0" x2="872" y2="236.0" stroke="#f1f3f4"/>
<text x="62.0" y="240.0" font-family="Arial, sans-serif" font-size="10" text-anchor="end" fill="#202124">15</text>
<line x1="70" y1="140.0" x2="872" y2="140.0" stroke="#f1f3f4"/>
<text x="62.0" y="144.0" font-family="Arial, sans-serif" font-size="10" text-anchor="end" fill="#202124">22</text>
<line x1="70" y1="44.0" x2="872" y2="44.0" stroke="#f1f3f4"/>
<text x="62.0" y="48.0" font-family="Arial, sans-serif" font-size="10" text-anchor="end" fill="#202124">30</text>
<rect x="70.0" y="146.4" width="45.3" height="281.6" fill="#188038"/>
<text x="92.6" y="446" font-family="Arial, sans-serif" font-size="10" text-anchor="middle" fill="#202124" transform="rotate(45 92.6 446)">2008</text>
<rect x="117.3" y="428.0" width="45.3" height="0.0" fill="#188038"/>
<rect x="164.6" y="210.4" width="45.3" height="217.6" fill="#188038"/>
<rect x="211.9" y="428.0" width="45.3" height="0.0" fill="#188038"/>
<rect x="259.2" y="210.4" width="45.3" height="217.6" fill="#188038"/>
<rect x="306.5" y="428.0" width="45.3" height="0.0" fill="#188038"/>
<text x="329.1" y="446" font-family="Arial, sans-serif" font-size="10" text-anchor="middle" fill="#202124" transform="rotate(45 329.1 446)">2013</text>
<rect x="353.8" y="146.4" width="45.3" height="281.6" fill="#188038"/>
<rect x="401.1" y="44.0" width="45.3" height="384.0" fill="#188038"/>
<rect x="448.4" y="428.0" width="45.3" height="0.0" fill="#188038"/>
<rect x="495.6" y="146.4" width="45.3" height="281.6" fill="#188038"/>
<rect x="542.9" y="428.0" width="45.3" height="0.0" fill="#188038"/>
<text x="565.6" y="446" font-family="Arial, sans-serif" font-size="10" text-anchor="middle" fill="#202124" transform="rotate(45 565.6 446)">2018</text>
<rect x="590.2" y="82.4" width="45.3" height="345.6" fill="#188038"/>
<rect x="637.5" y="210.4" width="45.3" height="217.6" fill="#188038"/>
<rect x="684.8" y="223.2" width="45.3" height="204.8" fill="#188038"/>
<rect x="732.1" y="223.2" width="45.3" height="204.8" fill="#188038"/>
<rect x="779.4" y="248.8" width="45.3" height="179.2" fill="#188038"/>
<text x="802.1" y="446" font-family="Arial, sans-serif" font-size="10" text-anchor="middle" fill="#202124" transform="rotate(45 802.1 446)">2023</text>
<rect x="826.7" y="274.4" width="45.3" height="153.6" fill="#188038"/>
<text x="849.4" y="446" font-family="Arial, sans-serif" font-size="10" text-anchor="middle" fill="#202124" transform="rotate(45 849.4 446)">2024</text>
</svg>