<svg xmlns="http://www.w3.org/2000/svg" width="1330" height="520" viewBox="0 0 1330 520">
<rect width="100%" height="100%" fill="#ffffff"/>
<text x="20.0" y="26.0" font-family="Arial, sans-serif" font-size="18" text-anchor="start" fill="#202124">VIS year distribution</text>
<line x1="70" y1="428" x2="1302" y2="428" stroke="#5f6368"/>
<line x1="70" y1="44" x2="70" y2="428" stroke="#5f6368"/>
<line x1="70" y1="428.0" x2="1302" y2="428.0" stroke="#f1f3f4"/>
<text x="62.0" y="432.0" font-family="Arial, sans-serif" font-size="10" text-anchor="end" fill="#202124">0</text>
<line x1="70" y1="332.0" x2="1302" y2="332.0" stroke="#f1f3f4"/>
<text x="62.0" y="336.0" font-family="Arial, sans-serif" font-size="10" text-anchor="end" fill="#202124">33</text>
<line x1="70" y1="236.0" x2="1302" y2="236.0" stroke="#f1f3f4"/>
<text x="62.0" y="240.0" font-family="Arial, sans-serif" font-size="10" text-anchor="end" fill="#202124">67</text>
<line x1="70" y1="140.0" x2="1302" y2="140.0" stroke="#f1f3f4"/>
<text x="62.0" y="144.0" font-family="Arial, sans-serif" font-size="10" text-anchor="end" fill="#202124">100</text>
<line x1="70" y1="44.0" x2="1302" y2="44.0" stroke="#f1f3f4"/>
<text x="62.0" y="48.0" font-family="Arial, sans-serif" font-size="10" text-anchor="end" fill="#202124">134</text>
<rect x="70.0" y="273.3" width="33.3" height="154.7" fill="#188038"/>
<text x="86.6" y="446" font-family="Arial, sans-serif" font-size="10" text-anchor="middle" fill="#202124" transform="rotate(45 86.6 446)">1990</text>
<rect x="105.3" y="284.7" width="33.3" height="143.3" fill="#188038"/>
<rect x="140.5" y="276.1" width="33.3" height="151.9" fill="#188038"/>
<rect x="175.8" y="270.4" width="33.3" height="157.6" fill="#188038"/>
<rect x="211.0" y="241.7" width="33.3" height="186.3" fill="#188038"/>
<rect x="246.3" y="267.5" width="33.3" height="160.5" fill="#188038"/>
<text x="262.9" y="446" font-family="Arial, sans-serif" font-size="10" text-anchor="middle" fill="#202124" transform="rotate(45 262.9 446)">1995</text>
<rect x="281.5" y="221.7" width="33.3" height="206.3" fill="#188038"/>
<rect x="316.8" y="207.3" width="33.3" height="220.7" fill="#188038"/>
<rect x="352.1" y="204.5" width="33.3" height="223.5" fill="#188038"/>
<rect x="387.3" y="215.9" width="33.3" height="212.1" fill="#188038"/>
<rect x="422.6" y="210.2" width="33.3" height="217.8" fill="#188038"/>
<text x="439.2" y="446" font-family="Arial, sans-serif" font-size="10" text-anchor="middle" fill="#202124" transform="rotate(45 439.2 446)">2000</text>
<rect x="457.8" y="215.9" width="33.3" height="212.1" fill="#188038"/>
<rect x="493.1" y="204.5" width="33.3" height="223.5" fill="#188038"/>
<rect x="528.3" y="198.7" width="33.3" height="229.3" fill="#188038"/>
<rect x="563.6" y="109.9" width="33.3" height="318.1" fill="#188038"/>
<rect x="598.9" y="44.0" width="33.3" height="384.0" fill="#188038"/>
<text x="615.5" y="446" font-family="Arial, sans-serif" font-size="10" text-anchor="middle" fill="#202124" transform="rotate(45 615.5 446)">2005</text>
<rect x="634.1" y="428.0" width="33.3" height="0.0" fill="#188038"/>
<rect x="669.4" y="428.0" width="33.3" height="0.0" fill="#188038"/>
<rect x="704.6" y="428.0" width="33.3" height="0.0" fill="#188038"/>
<rect x="739.9" y="428.0" width="33.3" height="0.0" fill="#188038"/>
<rect x="775.1" y="428.0" width="33.3" height="0.0" fill="#188038"/>
<text x="791.8" y="446" font-family="Arial, sans-serif" font-size="10" text-anchor="middle" fill="#202124" transform="rotate(45 791.8 446)">2010</text>
<rect x="810.4" y="428.0" width="33.3" height="0.0" fill="#188038"/>
<rect x="845.7" y="428.0" width="33.3" height="0.0" fill="#188038"/>
<rect x="880.9" y="428.0" width="33.3" height="0.0" fill="#188038"/>
<rect x="916.2" y="428.0" width="33.3" height="0.0" fill="#188038"/>
<rect x="951.4" y="428.0" width="33.3" height="0.0" fill="#188038"/>
<text x="968.1" y="446" font-family="Arial, sans-serif" font-size="10" text-anchor="middle" fill="#202124" transform="rotate(45 968.1 446)">2015</text>
<rect x="986.7" y="428.0" width="33.3" height="0.0" fill="#188038"/>
<rect x="1021.9" y="428.0" width="33.3" height="0.0" fill="#188038"/>
<rect x="1057.2" y="428.0" width="33.3" height="0.0" fill="#188038"/>
<rect x="1092.5" y="258.9" width="33.3" height="169.1" fill="#188038"/>
<rect x="1127.7" y="258.9" width="33.3" height="169.1" fill="#188038"/>
<text x="1144.3" y="446" font-family="Arial, sans-serif" font-size="10" text-anchor="middle" fill="#202124" transform="rotate(45 1144.3 446)">2020</text>
<rect x="1163.0" y="310.5" width="33.3" height="117.5" fill="#188038"/>
<rect x="1198.2" y="333.4" width="33.3" height="94.6" fill="#188038"/>
<rect x="1233.5" y="279.0" width="33.3" height="149.0" fill="#188038"/>
<rect x="1268.7" y="238.9" width="33.3" height="189.1" fill="#188038"/>
<text x="1285.4" y="446" font-family="Arial, sans-serif" font-size="10" text-anchor="middle" fill="#202124" transform="rotate(45 1285.4 446)">2024</text>
</svg>